<?xml version="1.0" standalone="no"?>
<!DOCTYPE svg PUBLIC "-//W3C//DTD SVG 20010904//EN" "http://www.w3.org/TR/2001/REC-SVG-20010904/DTD/svg10.dtd">
<!-- Created using Krita: https://krita.org -->
<svg xmlns="http://www.w3.org/2000/svg" 
    xmlns:xlink="http://www.w3.org/1999/xlink"
    xmlns:krita="http://krita.org/namespaces/svg/krita"
    xmlns:sodipodi="http://sodipodi.sourceforge.net/DTD/sodipodi-0.dtd"
    width="864pt"
    height="864pt"
    viewBox="0 0 864 864">
<defs/>
<path id="shape0" transform="translate(126.479058700149, 108.889010235034)" fill="#715847" fill-rule="evenodd" stroke="#0a0a00" stroke-width="57.6" stroke-linecap="square" stroke-linejoin="bevel" d="M235.768 19.6958L235.17 20.1526L234.511 20.6141L233.79 21.0807L233.008 21.5524L232.163 22.0295L231.257 22.5121L230.289 23.0004L229.283 23.4826L229.321 23.4835L230.222 23.0472L231.084 22.6144L231.911 22.1847L232.708 21.7575L233.481 21.3326L234.234 20.9094L234.972 20.4875L235.7 20.0665L236.424 19.6459L237.115 19.644L237.807 19.6423L238.499 19.6406L239.191 19.6393L239.885 19.6384L240.579 19.6379L241.275 19.638L241.973 19.6387L242.672 19.6402L243.373 19.6425L244.077 19.6457L244.783 19.65L245.491 19.6554L246.203 19.662L246.917 19.6699L247.635 19.6792L248.356 19.69L249.081 19.7024L249.81 19.7165L250.544 19.7323L251.281 19.75L252.023 19.7697L252.771 19.7914L253.523 19.8153L254.28 19.8414L255.043 19.8698L255.812 19.9007L256.586 19.9341L257.367 19.9701L258.155 20.0088L258.948 20.0503L260.604 21.075L261.487 21.6917L261.453 21.7465L261.693 22.2333L261.963 23.0639L262.23 23.881L262.493 24.6856L262.751 25.4788L263.004 26.2616L263.251 27.0352L263.491 27.8006L263.724 28.559L263.949 29.3112L264.165 30.0586L264.372 30.802L264.569 31.5427L264.755 32.2816L264.929 33.0199L265.092 33.7586L265.242 34.4989L265.092 33.7586L264.929 33.0198L264.755 32.2811L264.569 31.5414L264.372 30.7996L264.166 30.0543L263.95 29.3045L263.726 28.5489L263.494 27.7864L263.255 27.0156L263.01 26.2355L262.758 25.4449L262.502 24.6425L262.241 23.8272L261.977 22.9978L261.71 22.153L262.393 22.8482L263.164 23.5686L263.995 24.312L264.857 25.0759L265.722 25.858L266.563 26.656L267.351 27.4675L268.058 28.2902L268.656 29.1216L269.118 29.9595L269.414 30.8015L269.518 31.6453L269.522 32.4572L269.541 33.2606L269.573 34.0558L269.618 34.8431L269.677 35.6226L269.749 36.3949L269.834 37.16L269.932 37.9183L270.042 38.6701L270.166 39.4157L270.302 40.1553L270.45 40.8893L270.611 41.6179L270.784 42.3414L270.968 43.0601L271.165 43.7742L271.373 44.4841L271.594 45.1901L271.825 45.8924L272.068 46.5913L272.322 47.2871L272.587 47.9801L272.864 48.6706L273.151 49.3588L273.448 50.0451L273.757 50.7296L274.075 51.4128L274.405 52.0949L274.744 52.7762L275.093 53.4569L275.452 54.1374L275.821 54.8179L276.2 55.4987L276.588 56.1801L276.986 56.8624L277.393 57.5459L277.809 58.2309L278.234 58.9176L278.635 59.5678L279.031 60.2218L279.421 60.8796L279.805 61.5411L280.183 62.2062L280.557 62.8749L280.924 63.5469L281.287 64.2224L281.645 64.9012L281.999 65.5832L282.348 66.2683L282.692 66.9566L283.033 67.6478L283.369 68.3419L283.702 69.0389L284.031 69.7387L284.357 70.4411L284.68 71.1462L284.999 71.8538L285.316 72.5638L285.63 73.2763L285.941 73.9911L286.25 74.7081L286.557 75.4272L286.862 76.1485L287.165 76.8717L287.466 77.5969L287.766 78.3239L288.065 79.0527L288.362 79.7833L288.659 80.5154L288.955 81.2491L289.25 81.9842L289.545 82.7208L289.84 83.4587L290.135 84.1978L290.43 84.9381L290.725 85.6795L291.021 86.4219L291.317 87.1652L291.615 87.9094L291.913 88.6544L292.212 89.4001L292.513 90.1464L292.816 90.8933L293.12 91.6406L293.426 92.3884L293.735 93.1365L294.045 93.8849L293.612 93.1737L293.178 92.4616L292.743 91.7486L292.309 91.0347L291.874 90.32L291.44 89.6043L291.005 88.8878L290.57 88.1704L290.135 87.4521L289.7 86.7329L289.265 86.0129L288.83 85.292L288.394 84.5703L287.959 83.8477L287.524 83.1243L287.089 82.4001L286.654 81.675L286.219 80.9491L285.785 80.2223L285.35 79.4948L284.916 78.7664L284.482 78.0372L284.048 77.3072L283.614 76.5764L283.181 75.8449L282.748 75.1125L282.315 74.3793L281.883 73.6454L281.45 72.9107L281.019 72.1752L280.587 71.4389L280.157 70.7019L279.726 69.9642L279.296 69.2256L278.867 68.4864L278.438 67.7464L278.009 67.0056L277.581 66.2641L277.154 65.5219L276.727 64.779L276.301 64.0353L275.876 63.291L275.451 62.5459L275.027 61.8001L274.604 61.0537L274.181 60.3065L273.759 59.5586L273.338 58.8101L272.918 58.0609L272.498 57.311L272.08 56.5604L271.662 55.8092L271.245 55.0573L270.829 54.3047L270.414 53.5515L270 52.7977L269.587 52.0432L269.175 51.2881L268.764 50.5323L268.354 49.7759L267.945 49.0189L267.537 48.2613L267.131 47.5031L267.537 48.2613L267.945 49.0189L268.354 49.776L268.764 50.5325L269.175 51.2884L269.587 52.0438L270 52.7987L270.414 53.5531L270.829 54.3069L271.245 55.0603L271.662 55.8131L272.079 56.5656L272.498 57.3175L272.917 58.0691L273.337 58.8202L273.758 59.5709L274.179 60.3212L274.601 61.0711L275.024 61.8206L275.448 62.5698L275.872 63.3187L276.297 64.0672L276.723 64.8154L277.149 65.5633L277.575 66.3109L278.002 67.0582L278.43 67.8052L278.858 68.552L279.287 69.2986L279.716 70.0449L280.145 70.791L280.575 71.537L281.005 72.2827L281.435 73.0282L281.866 73.7736L282.297 74.5189L282.728 75.264L283.159 76.009L283.591 76.7539L284.023 77.4987L284.455 78.2434L284.887 78.988L285.319 79.7326L285.752 80.4771L286.184 81.2216L286.616 81.9661L287.049 82.7106L287.481 83.4551L287.913 84.1996L288.346 84.9442L288.778 85.6888L289.21 86.4335L289.642 87.1782L290.074 87.9231L290.505 88.668L290.936 89.4131L291.368 90.1582L291.798 90.9036L292.229 91.649L292.659 92.3947L293.089 93.1405L293.519 93.8865L293.948 94.6328L294.206 95.336L294.465 96.0394L294.724 96.7431L294.983 97.4474L295.242 98.1525L295.502 98.8584L295.763 99.5655L296.025 100.274L296.287 100.984L296.55 101.695L296.814 102.408L297.079 103.124L297.346 103.841L297.614 104.561L297.883 105.283L298.154 106.009L298.426 106.737L298.7 107.468L298.976 108.202L299.254 108.94L299.534 109.682L299.816 110.428L300.101 111.177L300.387 111.931L300.677 112.689L300.968 113.452L301.263 114.219L301.56 114.992L301.547 115.714L301.533 116.435L301.518 117.154L301.502 117.871L301.485 118.586L301.467 119.3L301.448 120.013L301.428 120.724L301.407 121.434L301.385 122.143L301.363 122.851L301.34 123.558L301.316 124.264L301.291 124.97L301.266 125.675L301.24 126.38L301.214 127.085L301.187 127.789L301.16 128.494L301.132 129.198L301.103 129.903L301.075 130.608L301.046 131.313L301.016 132.019L300.987 132.725L300.957 133.432L300.927 134.14L300.896 134.849L300.866 135.559L300.835 136.27L300.805 136.983L300.774 137.697L300.791 137.512L300.824 136.786L300.858 136.062L300.892 135.34L300.927 134.62L300.962 133.902L300.997 133.185L301.032 132.471L301.068 131.758L301.103 131.047L301.14 130.337L301.176 129.629L301.212 128.922L301.249 128.216L301.286 127.512L301.323 126.808L301.361 126.106L301.398 125.405L301.436 124.705L301.473 124.006L301.511 123.308L301.549 122.61L301.588 121.913L301.626 121.217L301.664 120.521L301.703 119.826L301.741 119.131L301.78 118.437L301.818 117.743L301.857 117.049L301.895 116.355L301.934 115.661L302.262 114.944L302.588 114.226L302.913 113.507L303.237 112.788L303.56 112.068L303.882 111.348L304.203 110.627L304.524 109.906L304.844 109.185L305.164 108.464L305.484 107.742L305.803 107.021L306.123 106.299L306.442 105.578L306.762 104.856L307.082 104.135L307.403 103.414L307.724 102.693L308.045 101.972L308.368 101.252L308.691 100.533L309.016 99.8138L309.341 99.0953L309.668 98.3774L309.996 97.6602L310.325 96.9438L310.656 96.2282L310.989 95.5135L311.324 94.7997L311.66 94.0869L311.999 93.3751L312.34 92.6645L312.683 91.955L313.028 91.2468L313.376 90.5398L313.727 89.8342L314.08 89.13L314.436 88.4273L314.795 87.7261L315.811 85.7799L316.844 83.8534L317.895 81.9467L318.963 80.0599L320.048 78.1931L321.151 76.3463L322.271 74.5197L323.409 72.7133L324.565 70.9273L325.737 69.1617L326.928 67.4165L328.136 65.692L329.361 63.9881L330.604 62.305L331.864 60.6427L333.143 59.0014L334.438 57.3811L335.752 55.7819L337.082 54.2038L338.431 52.6471L339.797 51.1117L341.181 49.5977L342.582 48.1053L344.001 46.6346L345.438 45.1855L346.893 43.7582L348.365 42.3528L349.855 40.9694L351.363 39.608L352.888 38.2687L354.431 36.9517L355.992 35.657L357.571 34.3847L359.167 33.1349L360.782 31.9077L362.414 30.7031L364.064 29.5213L365.732 28.3623L367.417 27.2262L369.121 26.1131L370.842 25.0231L372.581 23.9563L374.339 22.9127L376.114 21.8925L377.907 20.8958L379.718 19.9225L381.547 18.9729L383.394 18.047L385.259 17.1448L387.142 16.2665L389.042 15.4122L390.961 14.5819L392.898 13.7758L394.853 12.9938L396.826 12.2362L398.817 11.5029L400.827 10.7941L402.854 10.1099L404.899 9.45032L406.963 8.81548L409.044 8.20545L411.144 7.62033L413.262 7.0602L414.223 6.81695L415.186 6.58144L416.151 6.3535L417.119 6.13298L418.088 5.91971L419.059 5.71354L420.032 5.5143L421.007 5.32183L421.984 5.13598L422.962 4.95658L423.943 4.78347L424.924 4.6165L425.908 4.45549L426.893 4.3003L427.879 4.15076L428.867 4.00671L429.856 3.86799L430.847 3.73444L431.838 3.6059L432.832 3.48221L433.826 3.36321L434.821 3.24874L435.818 3.13863L436.815 3.03274L437.814 2.93089L438.814 2.83293L439.814 2.73869L440.815 2.64802L441.818 2.56076L442.82 2.47675L443.824 2.39582L444.828 2.31781L445.833 2.24257L446.839 2.16994L447.845 2.09974L448.851 2.03184L449.858 1.96605L450.865 1.90223L451.873 1.84021L452.881 1.77983L453.889 1.72094L454.897 1.66337L455.905 1.60696L456.914 1.55154L457.922 1.49697L458.931 1.44309L459.939 1.38972L460.947 1.33671L461.955 1.28389L462.963 1.23112L463.971 1.17823L464.978 1.12505L465.985 1.07144L466.992 1.01722L467.998 0.962232L469.004 0.906326L470.009 0.849336L471.013 0.791102L472.017 0.731464L473.02 0.670261L474.023 0.607333L475.024 0.542519L476.025 0.47566L476.723 0.429651L477.421 0.386389L478.12 0.345811L478.819 0.307854L479.518 0.272454L480.217 0.239548L480.916 0.209071L481.615 0.180961L482.315 0.155153L483.014 0.131584L483.714 0.110191L484.414 0.0909091L485.114 0.0736757L485.815 0.0584269L486.515 0.0450992L487.216 0.0336288L487.916 0.0239522L488.617 0.0160057L489.318 0.00972587L490.019 0.00504897L490.72 0.00191143L491.421 0.000249639L492.123 0L492.824 0.0010989L493.525 0.00348274L494.227 0.00708792L494.928 0.0118508L495.63 0.0177078L496.332 0.0245954L497.034 0.0324498L497.735 0.0412076L498.437 0.050805L499.139 0.0611785L499.841 0.0722646L500.543 0.0839995L501.245 0.0963197L501.947 0.109162L502.649 0.122461L503.351 0.136156L504.053 0.150181L504.755 0.164474L505.457 0.17897L506.159 0.193606L506.861 0.208318L507.563 0.223044L508.265 0.237718L508.967 0.252279L509.669 0.266661L510.37 0.280802L511.072 0.294637L511.774 0.308104L512.475 0.321138L513.177 0.333676L513.879 0.345655L514.58 0.35701L515.281 0.367679L515.983 0.377597L516.684 0.386701L517.479 0.448453L518.279 0.607113L519.09 0.852304L519.917 1.17365L520.767 1.56077L521.645 2.00328L522.558 2.49082L523.512 3.013L522.817 3.86833L522.095 4.68041L521.347 5.45108L520.575 6.18218L519.779 6.87554L518.961 7.53299L518.122 8.15638L517.298 8.72338L517.958 8.27869L518.732 7.72873L519.503 7.15513L520.274 6.55768L521.05 5.93623L521.833 5.29059L522.628 4.62058L523.439 3.92604L524.268 3.20678L524.63 3.93562L525.03 4.7043L525.45 5.50489L525.871 6.32945L526.273 7.17005L526.636 8.01876L526.942 8.86764L527.17 9.70876L527.303 10.5342L527.319 11.336L527.201 12.1062L526.91 13.2228L526.61 14.335L526.301 15.4429L525.983 16.5464L525.656 17.6457L525.321 18.7406L524.976 19.8312L524.623 20.9175L524.261 21.9995L523.891 23.0773L523.512 24.1507L523.124 25.2199L522.728 26.2849L522.324 27.3456L521.911 28.402L521.49 29.4543L521.061 30.5023L520.624 31.5461L520.179 32.5857L519.725 33.6211L519.264 34.6523L518.795 35.6793L518.318 36.7021L517.833 37.7208L517.34 38.7354L516.84 39.7458L516.332 40.752L515.816 41.7542L515.293 42.7522L514.763 43.7461L514.225 44.7359L513.68 45.7216L513.128 46.7032L512.568 47.6808L512.001 48.6542L511.428 49.6236L510.847 50.589L510.259 51.5503L509.664 52.5076L509.063 53.4608L508.454 54.4101L507.839 55.3553L507.217 56.2965L506.589 57.2338L505.954 58.167L505.313 59.0963L504.665 60.0216L504.011 60.943L503.35 61.8603L502.683 62.7738L502.01 63.6833L501.331 64.5889L500.646 65.4906L499.955 66.3884L499.257 67.2823L498.554 68.1722L497.845 69.0583L497.13 69.9406L496.41 70.8189L495.684 71.6934L494.952 72.5641L494.214 73.4309L493.472 74.2939L492.838 75.0227L492.202 75.749L491.563 76.473L490.921 77.1947L490.277 77.9143L489.63 78.6317L488.98 79.3471L488.328 80.0605L487.674 80.772L487.018 81.4817L486.359 82.1896L485.698 82.8959L485.035 83.6005L484.37 84.3036L483.703 85.0053L483.034 85.7056L482.363 86.4045L481.69 87.1022L481.016 87.7988L480.34 88.4942L479.662 89.1887L478.983 89.8822L478.302 90.5748L477.62 91.2666L476.936 91.9577L476.252 92.6481L475.566 93.338L474.878 94.0273L474.19 94.7162L473.501 95.4048L472.81 96.093L472.119 96.7811L471.427 97.469L470.734 98.1568L470.041 98.8447L469.346 99.5326L468.651 100.221L467.956 100.909L467.26 101.598L466.564 102.287L465.867 102.976L465.17 103.666L464.473 104.356L463.776 105.048L463.078 105.74L462.381 106.432L461.684 107.126L460.986 107.821L460.289 108.516L459.592 109.213L458.895 109.911L458.199 110.61L457.503 111.31L456.808 112.012L456.113 112.716L455.418 113.42L454.725 114.127L454.032 114.835L453.34 115.545L452.648 116.257L451.958 116.971L451.268 117.686L450.58 118.404L449.796 118.721L449.006 119.01L448.213 119.277L447.417 119.525L446.621 119.758L445.826 119.98L445.034 120.194L444.245 120.405L443.463 120.617L442.687 120.833L441.921 121.057L441.165 121.294L440.421 121.547L439.691 121.82L438.975 122.117L438.277 122.441L437.597 122.798L438.277 122.441L438.975 122.118L439.69 121.823L440.419 121.556L441.162 121.311L441.916 121.087L442.68 120.88L443.451 120.688L444.229 120.506L445.011 120.333L445.796 120.164L446.582 119.998L447.367 119.83L448.15 119.658L448.929 119.479L449.702 119.289L450.467 119.086L451.147 119.236L451.828 119.388L452.509 119.539L453.19 119.69L453.873 119.842L454.558 119.994L455.244 120.146L455.933 120.299L456.624 120.453L457.317 120.607L458.014 120.762L458.714 120.918L459.417 121.075L460.125 121.232L460.836 121.391L461.552 121.551L462.273 121.712L462.999 121.874L463.731 122.037L464.468 122.202L465.211 122.369L465.961 122.537L466.717 122.706L467.48 122.877L468.251 123.05L469.029 123.225L469.814 123.402L470.608 123.58L471.582 123.617L472.353 123.401L473.992 123.337L473.039 123.604L473.844 123.532L474.578 123.432L474.615 123.506L475.129 123.701L476.403 123.788L477.2 123.755L477.267 123.73L477.623 124.219L478.354 124.561L478.665 124.706L478.983 124.816L479.68 125.06L480.379 125.307L481.08 125.558L481.784 125.811L482.489 126.067L483.196 126.327L483.906 126.589L484.617 126.855L485.33 127.124L486.045 127.395L486.762 127.67L487.48 127.949L488.201 128.23L488.923 128.514L489.647 128.802L490.373 129.093L491.1 129.388L491.829 129.685L492.56 129.986L493.293 130.29L494.027 130.598L494.763 130.909L495.5 131.223L496.239 131.541L496.979 131.862L497.721 132.186L498.464 132.514L499.209 132.846L499.955 133.181L500.702 133.519L501.451 133.861L502.202 134.206L501.504 133.971L500.806 133.733L500.106 133.49L499.405 133.245L498.702 132.996L497.998 132.743L497.292 132.487L496.585 132.227L495.876 131.964L495.166 131.698L494.454 131.428L493.741 131.155L493.026 130.879L492.309 130.599L491.591 130.316L490.871 130.03L490.149 129.741L489.426 129.448L488.7 129.152L487.973 128.853L487.245 128.55L487.159 128.514L487.705 128.75L488.415 129.056L489.123 129.359L489.831 129.661L490.538 129.961L491.244 130.26L491.949 130.557L492.653 130.852L493.357 131.146L494.059 131.439L494.761 131.731L495.463 132.021L496.164 132.311L496.864 132.6L497.565 132.888L498.264 133.175L498.964 133.462L499.663 133.749L500.362 134.034L501.06 134.32L501.759 134.606L502.458 134.891L503.131 135.033L504.24 135.808L504.519 135.953L505.35 135.891L506.757 136.528L505.908 136.592L504.671 136.032L505.438 136.431L506.349 136.784L507.117 137.002L507.104 137.081L507.279 137.576L508.038 138.042L508.791 138.496L509.54 138.941L510.285 139.376L511.026 139.803L511.763 140.221L512.497 140.632L513.227 141.036L513.955 141.434L514.681 141.826L515.404 142.214L516.126 142.597L516.846 142.978L517.565 143.355L518.283 143.731L519 144.105L519.717 144.478L519.719 144.579L520.024 145.094L521.037 145.774L521.993 146.376L522.904 146.917L523.782 147.411L524.638 147.875L525.482 148.324L525.482 148.421L525.788 148.931L526.802 149.609L527.759 150.211L528.67 150.752L529.548 151.247L530.403 151.711L531.247 152.161L531.238 152.252L531.478 152.717L532.493 153.512L533.444 154.212L534.348 154.839L535.22 155.419L536.077 155.975L536.023 156.068L536.079 156.51L537.123 157.34L538.057 157.82L538.044 157.909L538.224 158.195L539.006 158.208L540.188 158.955L539.389 158.942L538.234 158.212L538.255 158.246L539.415 159.023L540.351 159.554L540.252 159.635L540.359 159.943L541.492 160.814L542.419 161.458L542.256 161.511L542.302 161.746L543.415 162.549L544.319 163.171L544.251 163.218L544.358 163.497L545.232 164.399L546.093 164.832L547.862 166.516L549.605 168.213L551.321 169.923L553.012 171.645L554.677 173.38L556.316 175.128L557.929 176.888L559.516 178.661L561.077 180.447L562.613 182.246L564.123 184.057L565.608 185.881L567.067 187.718L568.501 189.568L569.909 191.43L571.292 193.306L572.649 195.194L573.981 197.095L575.288 199.009L576.57 200.935L577.827 202.875L579.058 204.827L580.265 206.793L581.446 208.771L582.603 210.763L583.735 212.767L584.842 214.784L585.924 216.815L586.982 218.858L588.014 220.914L589.023 222.984L590.006 225.066L590.965 227.162L591.9 229.27L592.81 231.392L593.696 233.527L594.558 235.675L595.395 237.836L596.208 240.01L596.997 242.197L597.762 244.398L598.503 246.612L599.219 248.839L599.912 251.079L600.581 253.332L601.226 255.599L601.847 257.879L602.445 260.172L603.019 262.478L603.569 264.798L604.095 267.131L604.598 269.478L605.078 271.838L605.534 274.211L605.966 276.597L606.376 278.997L606.762 281.411L607.124 283.837L607.464 286.278L607.78 288.731L608.074 291.198L608.344 293.679L608.591 296.173L608.598 296.968L608.604 297.756L608.611 298.536L608.617 299.31L608.623 300.077L608.629 300.837L608.635 301.591L608.641 302.338L608.647 303.08L608.653 303.816L608.66 304.547L608.666 305.272L608.673 305.992L608.681 306.708L608.689 307.418L608.697 308.124L608.706 308.826L608.715 309.524L608.725 310.218L608.736 310.908L608.747 311.595L608.759 312.279L608.772 312.96L608.786 313.638L608.801 314.313L608.817 314.986L608.834 315.657L608.852 316.326L608.863 316.702L608.844 316.021L608.826 315.316L608.809 314.609L608.793 313.901L608.778 313.192L608.764 312.481L608.752 311.767L608.74 311.052L608.729 310.335L608.72 309.616L608.71 308.894L608.702 308.17L608.694 307.443L608.687 306.713L608.681 305.98L608.675 305.244L608.669 304.505L608.664 303.763L608.66 303.017L608.655 302.268L608.651 301.515L608.647 300.757L608.643 299.996L608.639 299.231L608.635 298.461L608.631 297.687L608.627 296.909L608.807 297.557L608.996 298.231L609.19 298.93L609.387 299.65L609.582 300.389L609.773 301.147L609.957 301.921L610.129 302.71L610.287 303.51L610.426 304.321L610.545 305.14L610.639 305.966L610.706 306.797L610.741 307.63L610.756 308.323L610.77 309.017L610.782 309.71L610.794 310.404L610.805 311.098L610.816 311.792L610.825 312.486L610.833 313.181L610.841 313.876L610.848 314.572L610.854 315.268L610.859 315.964L610.864 316.661L610.868 317.359L610.871 318.057L610.873 318.756L610.875 319.455L610.876 320.155L610.877 320.856L610.877 321.558L610.876 322.261L610.875 322.965L610.874 323.669L610.872 324.375L610.869 325.081L610.866 325.789L610.863 326.498L610.859 327.208L610.855 327.919L610.851 328.632L610.846 329.345L610.841 330.06L610.836 330.777L610.83 331.495L610.824 332.214L610.818 332.935L610.812 333.657L610.805 334.381L610.799 335.107L610.792 335.834L610.785 336.563L610.779 337.294L610.772 338.026L610.765 338.761L610.758 339.497L610.751 340.235L610.744 340.975L610.737 341.718L610.73 342.462L610.724 343.208L610.717 343.957L610.655 343.295L610.593 342.627L610.53 341.954L610.467 341.276L610.405 340.593L610.342 339.904L610.28 339.211L610.218 338.513L610.156 337.811L610.095 337.105L610.034 336.394L609.973 335.68L609.914 334.962L609.855 334.241L609.797 333.517L609.74 332.789L609.683 332.058L609.628 331.325L609.574 330.589L609.521 329.851L609.47 329.111L609.419 328.369L609.371 327.625L609.323 326.879L609.278 326.132L609.234 325.384L609.191 324.635L609.151 323.885L609.114 323.175L609.147 323.815L609.186 324.543L609.226 325.271L609.269 325.998L609.312 326.726L609.357 327.453L609.403 328.181L609.451 328.908L609.499 329.636L609.549 330.363L609.599 331.09L609.65 331.817L609.702 332.545L609.755 333.272L609.808 333.999L609.862 334.726L609.916 335.453L609.971 336.18L610.025 336.907L610.08 337.634L610.135 338.361L610.189 339.089L610.244 339.816L610.298 340.543L610.352 341.27L610.405 341.997L610.458 342.724L610.511 343.451L610.562 344.179L610.613 344.906L610.429 346.058L610.247 347.211L610.066 348.364L609.887 349.518L609.71 350.672L609.535 351.826L609.36 352.981L609.187 354.136L609.016 355.291L608.845 356.446L608.676 357.602L608.507 358.758L608.339 359.914L608.171 361.071L608.005 362.227L607.838 363.384L607.672 364.541L607.507 365.697L607.341 366.854L607.175 368.011L607.009 369.167L606.843 370.324L606.677 371.481L606.51 372.637L606.343 373.794L606.175 374.95L606.006 376.106L605.837 377.262L605.666 378.417L605.495 379.572L605.322 380.727L605.148 381.882L604.972 383.037L604.795 384.191L604.616 385.344L604.436 386.497L604.253 387.65L604.069 388.802L603.883 389.954L603.694 391.106L603.504 392.256L603.31 393.406L603.115 394.556L602.917 395.705L602.716 396.853L602.512 398.001L602.305 399.148L602.095 400.294L601.882 401.439L601.666 402.584L601.447 403.728L601.223 404.871L600.997 406.013L600.767 407.154L600.532 408.295L600.294 409.434L600.052 410.572L599.806 411.71L599.556 412.846L599.301 413.982L599.042 415.116L598.778 416.249L598.509 417.381L598.285 418.31L598.056 419.238L597.824 420.165L597.587 421.091L597.347 422.017L597.102 422.942L596.854 423.866L596.602 424.79L596.346 425.713L596.087 426.635L595.824 427.556L595.557 428.477L595.287 429.397L595.013 430.316L594.736 431.234L594.455 432.152L594.172 433.069L593.885 433.985L593.594 434.901L593.301 435.815L593.004 436.729L592.705 437.643L592.402 438.555L592.097 439.467L591.788 440.378L591.477 441.288L591.163 442.197L590.846 443.106L590.527 444.014L590.205 444.921L589.88 445.828L589.553 446.733L589.223 447.638L588.891 448.542L588.557 449.445L588.22 450.348L587.881 451.25L587.54 452.151L587.196 453.051L586.851 453.95L586.503 454.849L586.154 455.746L585.802 456.643L585.449 457.54L585.094 458.435L584.737 459.33L584.378 460.223L584.018 461.116L583.656 462.008L583.292 462.9L582.927 463.79L582.56 464.68L582.192 465.569L581.823 466.457L581.452 467.344L581.08 468.23L580.707 469.116L580.332 470.001L579.957 470.885L579.581 471.768L579.203 472.65L578.825 473.531L578.445 474.412L577.487 476.611L576.514 478.801L575.526 480.981L574.524 483.152L573.508 485.312L572.477 487.463L571.433 489.604L570.374 491.735L569.301 493.856L568.214 495.968L567.112 498.07L565.997 500.162L564.868 502.245L563.726 504.318L562.569 506.382L561.399 508.436L560.215 510.48L559.017 512.515L557.806 514.54L556.581 516.556L555.343 518.562L554.091 520.559L552.826 522.546L551.547 524.524L550.256 526.493L548.951 528.452L547.633 530.402L546.302 532.342L544.958 534.274L543.601 536.195L542.231 538.108L540.848 540.011L539.452 541.905L538.043 543.79L536.622 545.666L535.188 547.532L533.742 549.389L532.282 551.237L530.811 553.076L529.327 554.906L527.83 556.727L526.321 558.539L524.8 560.341L523.267 562.135L521.721 563.92L520.164 565.695L518.594 567.462L517.012 569.22L515.418 570.969L513.813 572.708L512.195 574.439L510.566 576.162L508.925 577.875L507.272 579.579L505.607 581.275L503.931 582.962L502.243 584.64L500.544 586.309L498.834 587.97L497.112 589.622L495.379 591.265L493.634 592.9L491.878 594.525L490.452 595.827L489.018 597.114L487.576 598.385L486.125 599.642L484.667 600.884L483.2 602.11L481.725 603.321L480.242 604.517L478.751 605.698L477.251 606.863L475.744 608.013L474.228 609.148L472.705 610.267L471.173 611.371L469.633 612.459L468.086 613.531L466.53 614.588L464.966 615.629L463.394 616.655L461.815 617.664L460.227 618.658L458.631 619.635L457.027 620.597L455.416 621.543L453.796 622.472L452.168 623.386L450.533 624.283L448.89 625.165L447.238 626.03L445.579 626.878L443.912 627.71L442.237 628.526L440.554 629.326L438.864 630.109L437.165 630.875L435.459 631.625L433.745 632.358L432.023 633.074L430.293 633.774L428.555 634.457L426.81 635.123L425.057 635.772L423.296 636.404L421.528 637.019L419.752 637.617L417.968 638.198L416.176 638.762L414.376 639.309L412.569 639.838L410.755 640.35L408.932 640.845L407.102 641.322L405.264 641.782L403.419 642.225L401.566 642.65L399.705 643.057L397.837 643.447L395.961 643.819L394.078 644.173L392.187 644.51L390.289 644.829L388.383 645.129L386.469 645.412L385.62 645.53L384.77 645.641L383.919 645.746L383.068 645.844L382.217 645.934L381.365 646.018L380.512 646.096L379.66 646.166L378.807 646.23L377.953 646.287L377.1 646.337L376.246 646.381L375.392 646.418L374.538 646.448L373.683 646.471L372.829 646.487L371.974 646.497L371.119 646.5L370.265 646.496L369.41 646.485L368.555 646.467L367.701 646.443L366.846 646.412L365.992 646.374L365.137 646.33L364.283 646.278L363.429 646.22L362.576 646.155L361.722 646.083L360.869 646.005L360.017 645.919L359.164 645.827L358.312 645.728L357.461 645.623L356.61 645.51L355.759 645.391L354.909 645.265L354.06 645.132L353.211 644.992L352.363 644.846L351.515 644.693L350.668 644.532L349.822 644.366L348.977 644.192L348.132 644.012L347.288 643.824L346.445 643.63L345.603 643.429L344.761 643.222L343.921 643.007L343.082 642.786L342.243 642.558L341.406 642.323L340.57 642.081L339.734 641.833L338.9 641.578L338.067 641.316L337.235 641.047L336.405 640.771L335.575 640.489L334.747 640.199L333.921 639.903L333.095 639.6L332.167 639.263L331.239 638.941L330.312 638.634L329.386 638.342L328.461 638.065L327.537 637.803L326.614 637.555L325.692 637.322L324.77 637.103L323.849 636.899L322.93 636.709L322.011 636.533L321.092 636.371L320.175 636.223L319.259 636.088L318.343 635.968L317.428 635.86L316.514 635.766L315.601 635.685L314.689 635.618L313.777 635.563L312.867 635.521L311.957 635.492L311.048 635.475L310.14 635.471L309.232 635.48L308.326 635.501L307.42 635.533L306.515 635.578L305.611 635.635L304.707 635.704L303.805 635.784L302.903 635.876L302.002 635.979L301.102 636.094L300.202 636.22L299.303 636.357L298.405 636.504L297.508 636.663L296.612 636.833L295.716 637.013L294.821 637.203L293.927 637.404L293.034 637.615L292.141 637.836L291.249 638.067L290.358 638.309L289.468 638.559L288.578 638.82L287.689 639.09L286.801 639.369L285.914 639.658L285.027 639.956L284.141 640.263L283.256 640.579L282.371 640.903L281.488 641.236L280.605 641.578L279.722 641.929L278.84 642.287L277.96 642.654L277.079 643.029L276.2 643.412L275.247 643.823L274.293 644.218L273.337 644.597L272.381 644.96L271.424 645.308L270.465 645.642L269.505 645.96L268.545 646.264L267.583 646.554L266.621 646.829L265.657 647.091L264.692 647.34L263.727 647.575L262.76 647.798L261.793 648.007L260.824 648.205L259.855 648.39L258.885 648.563L257.914 648.725L256.943 648.875L255.97 649.014L254.997 649.142L254.022 649.26L253.047 649.368L252.072 649.465L251.095 649.552L250.118 649.63L249.14 649.699L248.162 649.759L247.183 649.81L246.203 649.852L245.223 649.886L244.242 649.912L243.26 649.931L242.278 649.942L241.295 649.946L240.312 649.943L239.328 649.933L238.344 649.917L237.359 649.894L236.374 649.866L235.388 649.832L234.402 649.793L233.415 649.748L232.429 649.699L231.441 649.645L230.454 649.587L229.465 649.525L228.477 649.459L227.488 649.389L226.499 649.316L225.51 649.241L224.521 649.162L223.531 649.081L222.541 648.997L221.551 648.912L220.56 648.825L219.57 648.736L218.579 648.646L217.588 648.556L216.597 648.464L215.606 648.373L214.615 648.281L213.683 648.191L212.752 648.097L211.823 647.998L210.895 647.893L209.969 647.784L209.045 647.669L208.122 647.548L207.2 647.423L206.28 647.292L205.361 647.156L204.444 647.014L203.528 646.867L202.614 646.714L201.701 646.556L200.79 646.393L199.88 646.224L198.972 646.049L198.065 645.869L197.16 645.683L196.256 645.492L195.353 645.295L194.452 645.092L193.553 644.884L192.655 644.669L191.758 644.449L190.863 644.223L189.969 643.992L189.076 643.754L188.185 643.51L187.296 643.261L186.407 643.005L185.521 642.744L184.635 642.477L183.751 642.203L182.869 641.923L181.987 641.638L181.108 641.346L180.229 641.048L179.352 640.743L178.476 640.433L177.602 640.116L176.729 639.793L175.858 639.464L174.987 639.128L174.118 638.786L173.251 638.438L172.385 638.083L171.52 637.721L170.656 637.354L169.794 636.979L168.933 636.598L168.074 636.211L167.216 635.817L166.359 635.416L165.503 635.008L164.649 634.594L163.796 634.173L162.945 633.746L162.094 633.311L161.245 632.87L160.398 632.422L159.551 631.967L158.706 631.506L159.397 631.088L160.096 630.66L160.804 630.228L161.518 629.796L162.241 629.371L162.972 628.958L163.71 628.561L164.455 628.187L165.209 627.842L165.969 627.53L166.738 627.257L167.513 627.028L168.296 626.85L169.086 626.726L168.296 626.849L167.512 627.027L166.734 627.252L165.961 627.52L165.192 627.823L164.426 628.155L163.663 628.509L162.902 628.88L162.143 629.261L161.383 629.645L160.623 630.026L159.863 630.399L159.1 630.755L158.335 631.09L157.624 630.669L156.911 630.251L156.196 629.835L155.48 629.421L154.763 629.009L154.044 628.599L153.323 628.19L152.602 627.783L151.879 627.377L151.156 626.973L150.431 626.569L149.706 626.167L148.98 625.765L148.254 625.364L147.527 624.964L146.8 624.564L146.072 624.164L145.345 623.764L144.617 623.365L143.89 622.965L143.163 622.565L142.436 622.165L141.709 621.764L140.983 621.363L140.258 620.961L139.533 620.558L138.809 620.153L138.086 619.748L137.364 619.341L136.644 618.933L135.924 618.523L135.206 618.112L134.489 617.699L133.774 617.283L133.061 616.866L132.349 616.446L131.639 616.024L130.932 615.599L130.226 615.172L129.523 614.742L128.821 614.309L128.123 613.873L127.426 613.434L126.733 612.991L126.042 612.545L125.354 612.095L124.669 611.641L123.987 611.184L123.308 610.723L122.633 610.257L121.96 609.787L121.292 609.313L120.627 608.834L119.965 608.351L119.307 607.862L118.654 607.369L118.004 606.871L117.358 606.367L115.732 605.077L114.119 603.777L112.518 602.465L110.93 601.143L109.355 599.811L107.792 598.467L106.242 597.113L104.704 595.749L103.178 594.374L101.665 592.988L100.164 591.593L98.6755 590.187L97.1989 588.771L95.7344 587.345L94.2819 585.908L92.8415 584.462L91.4129 583.006L89.9962 581.54L88.5914 580.064L87.1983 578.578L85.817 577.083L84.4473 575.578L83.0892 574.064L81.7427 572.54L80.4077 571.006L79.0841 569.463L77.7719 567.911L76.471 566.35L75.1815 564.779L73.9031 563.199L72.6359 561.61L71.3799 560.013L70.1349 558.406L68.9009 556.79L67.6779 555.166L66.4658 553.533L65.2645 551.891L64.074 550.24L62.8943 548.581L61.7253 546.913L60.5668 545.237L59.419 543.553L58.2817 541.86L57.1548 540.159L56.0384 538.45L54.9323 536.733L53.8365 535.007L52.7509 533.274L51.6756 531.533L50.6104 529.783L49.5553 528.026L48.5102 526.262L47.4751 524.489L46.4499 522.709L45.4346 520.921L44.4291 519.126L43.4334 517.324L42.4474 515.514L41.471 513.696L40.5042 511.872L39.547 510.04L38.5992 508.201L37.6609 506.355L36.9432 504.926L36.2319 503.494L35.5272 502.059L34.8288 500.622L34.137 499.183L33.4516 497.741L32.7726 496.297L32.1 494.85L31.4338 493.401L30.774 491.95L30.1205 490.496L29.4735 489.04L28.8327 487.581L28.1983 486.12L27.5702 484.657L26.9485 483.191L26.333 481.724L25.7238 480.253L25.1209 478.781L24.5242 477.306L23.9338 475.829L23.3496 474.35L22.7716 472.869L22.1998 471.385L21.6343 469.9L21.0749 468.412L20.5216 466.922L19.9745 465.429L19.4336 463.935L18.8988 462.438L18.3701 460.94L17.8475 459.439L17.3309 457.936L16.8205 456.431L16.3161 454.924L15.8178 453.415L15.3255 451.904L14.8392 450.391L14.359 448.876L13.8847 447.359L13.4164 445.84L12.9541 444.319L12.4978 442.796L12.0474 441.271L11.6029 439.745L11.1644 438.216L10.7317 436.685L10.305 435.153L9.88412 433.618L9.46912 432.082L9.05999 430.544L8.65669 429.004L8.25922 427.462L7.86758 425.919L7.48173 424.373L7.10168 422.826L6.72741 421.277L6.3589 419.726L5.99614 418.174L5.63912 416.62L5.28783 415.064L4.94226 413.506L4.60238 411.947L4.3257 410.641L4.05968 409.334L3.80412 408.026L3.55884 406.717L3.32366 405.408L3.09839 404.097L2.88284 402.786L2.67682 401.474L2.48015 400.161L2.29264 398.847L2.1141 397.533L1.94435 396.218L1.7832 394.902L1.63046 393.586L1.48595 392.269L1.34948 390.951L1.22087 389.633L1.09992 388.314L0.986446 386.995L0.880267 385.674L0.781194 384.354L0.689039 383.033L0.603617 381.711L0.52474 380.389L0.452222 379.066L0.385876 377.743L0.325514 376.42L0.27095 375.096L0.221998 373.771L0.17847 372.447L0.14018 371.121L0.106941 369.796L0.078566 368.47L0.0548681 367.144L0.0356608 365.818L0.0207571 364.491L0.00997027 363.164L0.0031135 361.837L0 360.509L0.000442949 359.182L0.00425555 357.854L0.011251 356.526L0.0212425 355.198L0.0340432 353.869L0.0494663 352.541L0.0673251 351.213L0.0874327 349.884L0.109602 348.555L0.133647 347.227L0.15938 345.898L0.186615 344.569L0.215165 343.241L0.244843 341.912L0.275462 340.584L0.306835 339.255L0.338776 337.927L0.371097 336.598L0.403613 335.27L0.436136 333.942L0.468479 332.614L0.500455 331.286L0.531879 329.959L0.562562 328.631L0.735441 328.014L1.1845 327.273L1.84638 326.279L2.65773 324.9L2.78314 324.113L2.90544 323.332L3.02474 322.558L3.02754 322.539L3.04744 322.085L3.0792 321.403L3.11308 320.718L3.14913 320.031L3.1874 319.34L3.22794 318.646L3.27081 317.949L3.31606 317.249L3.36374 316.547L3.41391 315.841L3.46662 315.133L3.52192 314.421L3.57986 313.707L3.6405 312.99L3.7039 312.27L3.77009 311.548L3.83915 310.823L3.91111 310.095L3.98604 309.364L4.06399 308.631L4.145 307.895L4.22914 307.156L4.31645 306.415L4.407 305.671L4.50082 304.925L4.59798 304.176L4.69853 303.425L4.80251 302.671L4.91 301.915L5.02103 301.156L5.13566 300.395L5.11869 301.072L5.09812 301.75L5.07401 302.431L5.0464 303.115L5.01534 303.801L4.98091 304.49L4.94313 305.181L4.90207 305.874L4.85779 306.57L4.81033 307.269L4.75975 307.97L4.70609 308.674L4.64942 309.381L4.58979 310.09L4.52725 310.802L4.46185 311.517L4.39364 312.235L4.32269 312.955L4.24903 313.678L4.21509 314.001L4.25471 313.688L4.34318 312.978L4.42991 312.272L4.51501 311.569L4.59855 310.87L4.68063 310.174L4.76134 309.48L4.84078 308.789L4.91903 308.101L4.99619 307.415L5.07234 306.731L5.14758 306.049L5.222 305.368L5.29569 304.69L5.36875 304.012L5.44125 303.336L5.5133 302.66L5.58499 301.986L5.6564 301.312L5.72763 300.638L5.79876 299.965L5.95024 299.099L6.19715 298.047L6.63493 296.622L6.9951 295.488L7.27281 294.515L7.48869 293.663L7.66333 292.891L7.81736 292.16L7.93696 291.33L8.15317 290.318L8.56263 288.942L8.93756 287.789L9.229 286.793L9.45784 285.915L9.64494 285.116L9.81118 284.357L9.91232 283.547L10.1415 282.527L10.6268 281.086L10.9539 280.326L11.2779 279.569L11.5989 278.814L11.9172 278.061L12.2329 277.31L12.546 276.562L12.8568 275.815L13.1654 275.071L13.4719 274.329L13.7765 273.589L14.0794 272.85L14.3807 272.115L14.6804 271.381L14.9789 270.649L15.2762 269.919L15.5725 269.191L15.8679 268.465L16.1626 267.741L16.4567 267.02L16.7503 266.3L17.0437 265.582L17.337 264.866L17.6302 264.152L17.9236 263.439L18.2174 262.729L18.5115 262.02L18.8063 261.314L19.1018 260.609L19.3983 259.906L19.6957 259.205L19.9944 258.505L20.2944 257.808L20.5959 257.112L20.899 256.418L21.2039 255.725L21.5107 255.035L21.8197 254.346L22.1308 253.658L22.4443 252.973L22.7603 252.289L23.0744 251.616L23.0567 251.654L22.7309 252.352L22.4078 253.051L22.0874 253.753L21.7695 254.455L21.4539 255.159L21.1404 255.865L20.8291 256.572L20.5195 257.28L20.2117 257.989L19.9055 258.7L19.6007 259.413L19.2971 260.126L18.9946 260.841L18.6931 261.557L18.3924 262.274L18.0923 262.992L17.7927 263.712L17.4934 264.432L17.1943 265.154L16.8953 265.877L16.5961 266.6L16.2966 267.325L15.9967 268.05L15.6962 268.777L15.3949 269.504L15.0928 270.233L14.7896 270.962L14.4852 271.692L14.1794 272.422L13.8721 273.154L13.5632 273.886L13.2524 274.619L12.9396 275.353L12.6247 276.087L12.3076 276.822L11.988 277.557L11.6658 278.293L11.3408 279.03L11.013 279.767L10.6821 280.504L10.9482 279.309L11.2226 278.117L11.5051 276.928L11.7959 275.742L12.0949 274.559L12.4021 273.378L12.7176 272.201L13.0413 271.027L13.3732 269.856L13.7135 268.688L14.062 267.522L14.4188 266.36L14.7839 265.201L15.1573 264.045L15.539 262.892L15.9291 261.742L16.3275 260.595L16.7342 259.451L17.1493 258.31L17.5728 257.173L18.0046 256.038L18.4448 254.906L18.8934 253.778L19.3504 252.652L19.8158 251.53L20.2897 250.411L20.7719 249.294L21.2627 248.181L21.7618 247.071L22.2695 245.964L22.7855 244.861L23.3101 243.76L23.8432 242.663L24.3847 241.568L24.9348 240.477L25.4934 239.389L26.0605 238.304L26.6362 237.222L27.2203 236.144L27.8131 235.068L28.4144 233.996L29.0243 232.927L29.6428 231.861L30.2698 230.798L30.9055 229.738L31.5498 228.682L32.2027 227.629L32.8642 226.579L33.5344 225.532L34.2132 224.488L34.9007 223.448L35.5969 222.411L36.3017 221.377L37.0152 220.346L37.7374 219.319L38.4684 218.295L39.208 217.274L39.9564 216.256L40.7135 215.242L41.4794 214.23L42.254 213.223L43.0374 212.218L43.8295 211.216L43.4834 211.915L43.1353 212.613L42.7853 213.312L42.4336 214.011L42.08 214.711L41.7248 215.41L41.368 216.11L41.0097 216.811L40.6499 217.511L40.2887 218.212L39.9261 218.914L39.5623 219.616L39.1973 220.318L38.8311 221.021L38.4639 221.724L38.0958 222.427L37.7267 223.131L37.3567 223.835L36.986 224.54L36.6145 225.245L36.2424 225.951L35.8698 226.657L35.4966 227.363L35.123 228.07L34.749 228.778L34.3747 229.486L34.0002 230.195L33.6255 230.904L33.2507 231.614L32.8759 232.324L32.5012 233.035L32.1266 233.747L31.7521 234.459L31.3779 235.172L31.004 235.885L30.6305 236.599L30.2575 237.313L29.885 238.029L29.5131 238.745L29.1418 239.461L28.7713 240.178L28.4016 240.896L28.0327 241.615L27.6648 242.334L27.2979 243.054L26.9321 243.775L26.5674 244.497L26.204 245.219L25.8418 245.942L25.481 246.666L25.1216 247.391L24.7637 248.116L24.7529 248.138L25.1021 247.43L25.455 246.718L25.8094 246.008L26.1652 245.298L26.5224 244.588L26.8809 243.879L27.2407 243.171L27.6018 242.463L27.9641 241.756L28.3275 241.05L28.6921 240.344L29.0578 239.639L29.4245 238.934L29.7922 238.23L30.1608 237.526L30.5304 236.822L30.9008 236.119L31.2721 235.417L31.6441 234.714L32.0169 234.012L32.3904 233.311L32.7646 232.61L33.1393 231.909L33.5147 231.208L33.8906 230.508L34.2669 229.808L34.6437 229.108L35.0209 228.408L35.3985 227.708L35.7764 227.009L36.1545 226.31L36.5329 225.611L36.9115 224.911L37.2902 224.212L37.669 223.514L38.0479 222.815L38.4268 222.116L38.8057 221.417L39.1846 220.718L39.5633 220.019L39.9418 219.32L40.3202 218.621L40.6984 217.921L41.0762 217.222L41.4538 216.522L41.8309 215.823L42.2077 215.123L42.584 214.422L42.9599 213.722L43.3352 213.021L43.7099 212.32L44.084 211.619L44.4574 210.918L45.0894 209.89L46.3687 208.44L46.8751 207.724L46.9967 207.133L47.4714 206.01L48.2102 204.716L48.0078 205.676L47.7247 206.363L47.8018 206.23L48.2352 205.309L48.5878 204.441L49.3669 203.484L50.1509 202.532L50.9397 201.584L51.7333 200.641L52.5318 199.704L53.3352 198.771L54.1434 197.843L54.9564 196.92L55.7744 196.003L56.5972 195.09L57.4249 194.183L58.2574 193.282L59.0949 192.386L59.9373 191.495L60.7846 190.61L61.6368 189.73L62.4939 188.857L63.3559 187.989L64.2229 187.126L65.0948 186.27L65.9717 185.42L66.8535 184.575L67.7403 183.737L68.632 182.905L69.5287 182.079L70.4304 181.259L71.3371 180.446L72.2488 179.639L73.1654 178.839L74.0871 178.045L75.0138 177.258L75.9455 176.477L76.8822 175.703L77.8239 174.936L78.7707 174.176L79.7225 173.423L80.6794 172.677L81.6413 171.938L82.6083 171.205L83.5803 170.481L84.5574 169.763L85.5396 169.053L86.5269 168.35L87.5193 167.654L88.5168 166.966L89.5193 166.286L90.527 165.613L91.5398 164.948L92.5578 164.291L93.5808 163.642L94.609 163L95.6424 162.367L96.6808 161.741L97.7245 161.124L98.7733 160.514L99.8273 159.913L100.886 159.321L101.951 158.736L103.02 158.16L104.095 157.593L105.175 157.034L106.26 156.484L107.35 155.942L108.306 155.475L109.264 155.011L110.224 154.551L111.188 154.094L112.153 153.64L113.121 153.19L114.092 152.743L115.065 152.3L116.04 151.86L117.018 151.424L117.998 150.992L118.98 150.563L119.965 150.138L120.951 149.716L121.94 149.298L122.931 148.884L123.923 148.474L124.918 148.068L125.915 147.665L126.913 147.267L127.914 146.872L128.916 146.481L129.92 146.094L130.926 145.711L131.934 145.332L132.943 144.957L133.953 144.586L134.966 144.219L135.98 143.857L136.995 143.498L138.012 143.144L139.03 142.793L140.05 142.447L141.071 142.106L142.093 141.768L143.116 141.435L144.141 141.106L145.167 140.782L146.194 140.462L147.222 140.146L148.251 139.835L149.281 139.529L150.312 139.227L151.344 138.929L152.377 138.636L153.411 138.347L154.445 138.064L155.481 137.784L156.517 137.51L157.553 137.24L158.59 136.975L159.628 136.715L160.667 136.459L161.706 136.209L162.745 135.963L163.785 135.722L164.825 135.486L165.866 135.255L166.906 135.028L167.947 134.807L168.989 134.591L170.03 134.38L171.072 134.174L172.025 133.991L172.98 133.816L173.937 133.648L174.895 133.486L175.855 133.332L176.817 133.184L177.78 133.043L178.745 132.908L179.711 132.78L180.678 132.658L181.647 132.542L182.617 132.431L183.588 132.327L184.561 132.229L185.534 132.136L186.509 132.048L187.485 131.966L188.462 131.889L189.44 131.818L190.419 131.751L191.399 131.689L192.38 131.632L193.362 131.579L194.344 131.532L195.327 131.488L196.311 131.449L197.296 131.414L198.281 131.382L199.267 131.355L200.253 131.332L201.24 131.312L202.228 131.296L203.215 131.283L204.204 131.274L205.192 131.268L206.181 131.264L207.17 131.264L208.159 131.267L209.149 131.272L210.138 131.28L211.128 131.29L212.118 131.303L213.108 131.317L214.097 131.334L215.087 131.353L216.076 131.374L217.066 131.396L218.055 131.42L219.044 131.446L220.032 131.473L221.021 131.501L222.008 131.53L222.996 131.56L223.983 131.592L224.969 131.623L225.955 131.656L226.941 131.689L227.926 131.722L228.91 131.756L229.893 131.79L230.876 131.824L231.857 131.858L232.838 131.891L233.527 131.918L234.215 131.952L234.904 131.993L235.592 132.04L236.28 132.094L236.968 132.154L237.657 132.22L238.345 132.292L239.033 132.369L239.722 132.453L240.411 132.541L241.101 132.635L241.791 132.733L242.481 132.836L243.172 132.944L243.863 133.057L244.555 133.174L245.248 133.294L245.942 133.419L246.636 133.547L247.331 133.679L248.027 133.815L248.724 133.953L249.422 134.095L250.12 134.239L250.82 134.386L251.522 134.535L252.224 134.687L252.928 134.841L253.633 134.997L254.339 135.155L255.047 135.314L255.756 135.474L256.467 135.636L257.179 135.799L257.893 135.963L258.609 136.127L259.326 136.292L260.046 136.457L260.767 136.623L261.49 136.788L262.215 136.953L262.942 137.118L263.671 137.282L264.402 137.445L265.136 137.608L265.871 137.769L266.609 137.93L267.349 138.088L268.092 138.245L268.837 138.401L269.585 138.554L270.335 138.705L271.088 138.854L271.843 139L273.093 139.578L274.092 140.147L274.909 140.756L275.608 141.454L276.257 142.291L276.336 143.061L276.415 143.827L276.493 144.59L276.57 145.349L276.647 146.105L276.723 146.857L276.798 147.606L276.879 147.677L276.809 146.932L276.74 146.182L276.67 145.427L276.6 144.665L276.531 143.898L276.461 143.125L276.391 142.345L276.321 141.559L275.982 140.724L275.452 140.628L274.61 140.251L273.669 139.685L272.568 138.973L272.316 138.181L272.102 137.401L271.919 136.627L271.76 135.851L271.62 135.064L271.492 134.26L271.37 133.431L271.248 132.57L271.118 131.668L271.526 132.272L271.94 132.904L272.359 133.562L272.784 134.248L273.213 134.963L273.328 135.162L273.246 135.009L272.862 134.314L272.478 133.637L272.093 132.972L271.709 132.318L271.325 131.67L270.94 131.025L270.829 130.731L270.751 129.695L270.559 129.069L270.416 128.844L269.997 128.181L269.577 127.516L269.157 126.85L268.737 126.182L268.317 125.512L267.897 124.841L267.477 124.168L267.056 123.493L266.636 122.817L266.215 122.14L265.795 121.46L265.374 120.78L264.953 120.097L264.532 119.413L264.111 118.727L263.69 118.04L263.268 117.351L262.847 116.661L262.425 115.969L262.003 115.276L261.581 114.581L261.159 113.884L260.736 113.186L260.314 112.486L259.891 111.785L259.469 111.083L259.046 110.378L258.622 109.673L258.199 108.965L257.776 108.257L257.352 107.546L256.928 106.835L256.504 106.121L256.08 105.407L255.655 104.69L255.231 103.973L254.806 103.253L254.381 102.533L253.956 101.811L253.53 101.087L253.105 100.362L252.679 99.6355L252.253 98.9076L251.826 98.1782L251.4 97.4473L250.973 96.7151L250.546 95.9814L250.119 95.2462L249.691 94.5097L249.264 93.7717L248.836 93.0323L248.407 92.2915L247.979 91.5493L248.693 92.0332L249.392 92.5283L250.074 93.0346L250.741 93.5518L251.393 94.0798L252.03 94.6184L252.653 95.1675L253.261 95.7268L253.855 96.2961L254.435 96.8754L255.002 97.4644L255.556 98.0629L256.097 98.6709L256.626 99.288L257.142 99.9141L257.646 100.549L258.138 101.193L258.62 101.845L259.09 102.505L259.549 103.174L259.998 103.851L260.436 104.535L260.865 105.227L261.284 105.927L261.694 106.633L262.094 107.347L262.486 108.068L262.81 108.682L262.65 108.369L262.268 107.646L261.879 106.929L261.48 106.219L261.073 105.514L260.656 104.817L260.23 104.126L259.793 103.441L259.347 102.764L258.89 102.094L258.422 101.43L257.944 100.774L257.454 100.126L256.952 99.4848L256.439 98.8516L255.914 98.2261L255.376 97.6087L254.825 96.9993L254.262 96.3982L253.685 95.8054L253.095 95.2212L252.491 94.6456L251.873 94.0787L251.241 93.5208L250.594 92.9719L249.932 92.4322L249.255 91.9018L248.562 91.3809L247.854 90.8695L246.577 90.0985L245.611 89.1818L245.176 88.2839L244.724 87.4093L244.255 86.5576L243.769 85.7285L243.267 84.9217L242.749 84.1369L242.215 83.3736L241.666 82.6317L241.101 81.9108L240.522 81.2106L239.927 80.5308L239.319 79.871L238.696 79.2309L238.059 78.6102L237.409 78.0086L236.745 77.4258L236.069 76.8615L235.379 76.3152L234.678 75.7868L233.964 75.2759L233.238 74.7822L232.5 74.3053L231.751 73.845L230.991 73.4009L230.22 72.9726L229.438 72.56L228.647 72.1627L227.845 71.7802L227.033 71.4125L226.213 71.059L225.382 70.7195L224.543 70.3937L223.696 70.0812L222.84 69.7818L221.976 69.4951L221.104 69.2208L220.225 68.9586L219.338 68.7081L218.444 68.4691L217.544 68.2412L216.637 68.0241L215.725 67.8175L214.55 67.533L213.449 67.2111L212.422 66.8497L211.468 66.4471L210.588 66.0012L209.783 65.5101L209.052 64.9719L208.397 64.3847L207.817 63.7466L207.313 63.0557L206.885 62.31L206.533 61.5076L206.259 60.6466L206.061 59.7251L205.941 58.7411L205.899 57.6928L205.935 56.5783L206.049 55.3955L206.243 54.1426L206.515 52.8177L206.921 51.9431L207.311 51.0958L207.685 50.2738L208.044 49.4751L208.39 48.6979L208.724 47.9402L209.047 47.2L209.361 46.4754L209.666 45.7645L209.964 45.0652L210.256 44.3757L210.543 43.6939L210.827 43.018L211.108 42.346L211.388 41.676L211.348 41.5094L211.875 41.1022L212.634 40.3403L213.386 39.5815L214.13 38.8259L214.868 38.0731L215.599 37.3232L216.324 36.5759L217.042 35.8311L217.756 35.0886L218.464 34.3484L219.167 33.6103L219.865 32.8742L220.559 32.1398L221.25 31.4071L221.936 30.676L222.62 29.9462L223.3 29.2177L223.978 28.4903L224.653 27.7639L225.327 27.0383L225.999 26.3134L226.669 25.5891L227.339 24.8652L228.008 24.1415L228.676 23.418L228.773 23.4707L229.274 23.4824L229.855 23.0389L230.515 22.5775L231.236 22.1105L232.019 21.6379L232.864 21.16L233.77 20.6769L234.738 20.1888L235.768 19.6958M517.249 8.75653L516.385 9.30832L517.177 8.80516L517.249 8.75653M608.909 318.198L608.913 318.323L608.924 318.643L608.909 318.198M608.933 318.896L608.936 318.986L608.948 319.316L608.933 318.896M608.958 319.584L608.96 319.648L608.974 320.005L608.958 319.584M608.984 320.268L608.986 320.31L609.003 320.725L608.984 320.268M609.012 320.95L609.013 320.971L609.041 321.631L609.012 320.95M609.041 321.631L609.075 322.359L609.075 322.373L609.041 321.631M609.083 322.526L609.11 323.087L609.112 323.128L609.083 322.526M23.3948 250.938L23.3855 250.957L23.1785 251.396L23.3948 250.938M519.506 143.802L518.781 143.525L518.051 143.231L517.317 142.922L516.577 142.597L515.832 142.257L515.081 141.902L514.325 141.531L513.564 141.146L512.797 140.745L512.024 140.33L511.246 139.9L510.461 139.455L509.671 138.996L508.875 138.523L508.073 138.035L507.265 137.533L507.987 137.815L508.715 138.111L509.449 138.421L510.189 138.745L510.935 139.085L511.687 139.438L512.444 139.807L513.207 140.19L513.976 140.588L514.75 141.001L515.53 141.429L516.314 141.873L517.104 142.332L517.9 142.806L518.7 143.297L519.506 143.802M476.881 123.498L476.356 123.75L475.074 123.659L475.599 123.406L476.881 123.498M544.099 162.659L543.385 162.46L542.282 161.548L542.995 161.746L544.099 162.659"/><path id="shape1" transform="matrix(1.92 0 0 1.92 126.478818028971 240.152809598139)" fill="#ff5012" stroke="#000000" stroke-opacity="0" stroke-width="0" stroke-linecap="square" stroke-linejoin="bevel" d="M4.07167 83.8C4.12557 83.3838 4.17947 82.9676 4.45983 82.1241C4.82756 81.0431 4.96883 80.3895 5.11011 79.7358C5.15168 79.3325 5.19323 78.9292 5.53489 78.0323C8.04577 72.2218 10.0129 66.7864 12.5275 61.6174C15.8452 54.7977 19.5925 48.187 23.155 41.4864C23.337 41.1541 23.519 40.8218 24.1505 40.1961C24.8354 39.3062 25.0708 38.7098 25.3063 38.1133C33.8018 27.6194 43.9578 18.7291 55.9117 12.8534C66.3466 7.72441 77.7066 3.74172 89.1001 1.51559C99.5177 -0.519888 110.545 -0.0388853 121.27 0.326837C127.846 0.551104 134.359 2.6459 141.585 4.02915C142.797 4.54993 143.324 4.94229 143.884 5.74353C144.365 10.4333 144.813 14.7142 144.828 18.9807C136.724 17.4811 129.095 15.6779 121.363 14.6349C117.01 14.0475 112.431 14.3156 108.058 14.9349C104.203 15.4808 101.907 18.1024 102.392 22.7661C102.147 30.8874 107.699 34.3648 113.461 37.0105C137.907 48.2329 162.443 47.5196 186.744 36.4686C194.108 33.1196 200.588 28.4757 204.611 20.8273C213.954 21.2199 222.973 22.5196 231.774 21.6407C239.065 20.9126 246.178 17.8373 253.217 15.3674C257.054 14.0209 260.06 14.1779 263.38 16.7254C271.628 23.053 277.552 31.1581 282.354 40.2072C291.18 56.8372 293.634 74.965 294.009 93.3671C294.576 121.183 285.315 146.012 269.081 168.272C246.702 198.957 216.703 220.185 182.375 235.229C152.404 248.363 120.43 254.239 88.0657 258.053C86.1367 258.281 84.3298 259.545 82.4662 260.326C75.3163 256.08 67.6044 252.547 61.1242 247.45C43.2697 233.404 29.8266 215.589 19.6152 195.36C11.7294 179.739 6.08346 163.253 2.3972 146.189C-0.687944 131.908 -0.0377454 117.312 0.293127 102.796C0.302618 102.379 0.783697 101.974 1.38436 100.852C2.15599 96.0491 2.58815 91.9571 3.02031 87.8651C3.09092 87.4303 3.16153 86.9955 3.45582 86.1241C3.81022 85.0583 3.94095 84.4292 4.07167 83.8M38.4796 116.666C42.9815 116.624 43.7651 113.338 44.2871 109.913C45.8676 99.5426 49.1245 89.6772 55.5003 81.3699C62.0613 72.8213 69.5025 64.945 76.6209 56.8292C78.8113 54.3319 81.3631 52.1434 83.4726 49.5852C86.8801 45.453 88.342 40.9116 85.5018 35.7614C82.5067 30.3301 78.0198 26.8766 71.7845 27.6978C67.1244 28.3116 62.1992 29.6239 58.193 31.9844C46.0041 39.1665 38.0795 50.3975 32.3861 62.9725C26.1083 76.8381 22.8591 91.406 26.7747 106.697C28.211 112.306 31.3728 116.274 38.4796 116.666Z"/><path id="shape2" transform="matrix(1.92 0 0 1.92 285.1850976 227.9745408)" fill="#f20f21" stroke="#000000" stroke-opacity="0" stroke-width="0" stroke-linecap="square" stroke-linejoin="bevel" d="M0 266.885C1.67032 265.887 3.47717 264.624 5.40616 264.396C37.7704 260.582 69.7445 254.706 99.7152 241.572C134.044 226.528 164.043 205.3 186.422 174.615C202.656 152.355 211.916 127.525 211.349 99.7099C210.975 81.3078 208.52 63.1801 199.695 46.5501C194.892 37.5009 188.969 29.3959 180.721 23.0682C177.4 20.5208 174.395 20.3637 170.557 21.7102C163.518 24.1801 156.406 27.2554 149.115 27.9835C140.314 28.8625 131.295 27.5628 121.957 26.7693C121.3 19.2524 118.817 17.2826 112.193 19.0973C109.802 19.7523 107.505 20.7484 105.158 21.5659C95.9387 24.7766 86.7164 27.9782 77.4045 30.7607C77.0399 26.6602 76.7661 22.9822 76.916 19.3074C82.445 19.6239 87.5828 20.4667 92.6499 20.1564C111.836 18.9814 128.779 11.1175 145.256 1.93351C147.234 0.83046 149.712 0.622719 151.959 0C155.264 0.733734 158.57 1.46747 162.449 2.34113C163.521 2.40859 164.019 2.33612 164.517 2.26366C164.517 2.26365 164.472 2.3205 164.803 2.40367C165.384 2.46857 165.633 2.45027 165.882 2.43198C165.882 2.43198 165.902 2.31721 166.103 2.6735C170.548 4.76388 174.793 6.49796 179.037 8.23205C179.252 8.22431 179.449 8.27806 179.966 8.70964C180.689 9.12784 181.076 9.22969 181.464 9.33154C181.464 9.33154 181.418 9.34094 181.548 9.63036C183.795 11.0216 185.911 12.1235 188.027 13.2254C188.027 13.2254 187.976 13.258 188.187 13.5463C189.274 14.2992 190.152 14.7638 191.029 15.2284C191.029 15.2284 190.977 15.2584 191.189 15.5444C192.278 16.2958 193.155 16.7612 194.032 17.2267C194.032 17.2267 193.979 17.2571 194.152 17.5164C195.065 18.2549 195.806 18.7342 196.547 19.2134C196.547 19.2134 196.472 19.2498 196.548 19.4921C196.943 19.881 197.261 20.0276 197.579 20.1743C197.579 20.1743 197.526 20.2245 197.682 20.3959C198.15 20.7374 198.462 20.9075 198.773 21.0776C198.773 21.0776 198.634 21.1223 198.778 21.28C199.231 21.6481 199.541 21.8585 199.85 22.0688C199.85 22.0688 199.644 22.0929 199.79 22.2188C200.237 22.5501 200.538 22.7555 200.84 22.9609C200.84 22.9609 200.739 22.9701 200.86 23.1307C201.186 23.5522 201.447 23.7305 201.764 23.8261C221.253 42.1804 231.736 64.8803 234.315 92.233C234.358 97.226 234.366 101.363 234.55 105.493C234.729 109.537 235.088 113.574 235.368 117.615C233.341 130.215 232.027 142.986 229.064 155.362C226.632 165.522 222.768 175.44 218.614 185.066C208.209 209.18 192.792 229.889 173.527 247.625C157.975 261.942 139.598 271.133 118.627 274.129C109.339 275.455 99.8488 274.452 90.8276 271.101C80.6675 267.327 70.811 268.856 61.1946 273.087C50.7779 277.67 39.9604 276.628 29.1194 275.622C18.9148 274.676 9.23677 271.974 0 266.885Z"/><path id="shape3" transform="matrix(1.92 0 0 1.92 426.89742144 108.888940353143)" fill="#387b27" stroke="#000000" stroke-opacity="0" stroke-width="0" stroke-linecap="square" stroke-linejoin="bevel" d="M0.789398 60.2404C3.01149 55.385 5.04623 50.4331 7.48785 45.6907C18.5028 24.2963 35.5091 9.66665 58.7726 3.67722C69.2729 0.973804 80.5208 0.990818 91.4618 0.247776C98.4904 -0.229565 105.578 0.114082 112.638 0.201443C113.742 0.215107 114.839 0.824806 116.195 1.56931C115.13 2.94051 113.868 3.9947 112.483 4.84812C90.5747 18.3418 68.493 31.5613 46.7835 45.3664C30.9624 55.427 15.6276 66.2523 0 76.2567C0.212448 70.598 0.500916 65.4192 0.789398 60.2404Z"/><path id="shape4" transform="matrix(1.92 0 0 1.92 427.04334912 112.09579008)" fill="#809d15" stroke="#000000" stroke-opacity="0" stroke-width="0" stroke-linecap="square" stroke-linejoin="bevel" d="M0 75.0664C15.5516 64.582 30.8864 53.7568 46.7075 43.6961C68.417 29.891 90.4987 16.6716 112.407 3.17789C113.792 2.32446 115.054 1.27027 116.512 0C117.153 1.34879 118.407 3.19937 118.04 4.63512C114.909 16.8714 108.628 27.6066 100.473 37.0245C93.559 45.0088 85.6567 52.1367 78.1332 59.9986C75.8279 60.9762 73.3499 61.184 71.371 62.287C54.8949 71.471 37.951 79.3349 18.7654 80.5099C13.6983 80.8202 8.56053 79.9774 2.73894 79.4878C1.34843 77.8964 0.67421 76.4814 0 75.0664Z"/><path id="shape5" transform="matrix(1.92 0 0 1.92 332.377976832663 128.526851706964)" fill="#5f3626" stroke="#000000" stroke-opacity="0" stroke-width="0" stroke-linecap="square" stroke-linejoin="bevel" d="M49.2289 66.0286C49.9791 67.9236 50.6533 69.3385 51.6201 70.9267C52.1865 74.7778 52.4603 78.4559 52.7553 82.9603C52.2036 86.7226 52.1728 89.9316 50.8775 92.5038C49.9285 94.3881 47.3922 96.3883 45.4258 96.5388C43.9993 96.648 41.7205 94.0785 40.9416 92.2312C39.735 89.37 39.4834 86.106 38.8503 82.6299C38.5894 80.5425 38.3051 78.838 38.0208 77.1336C37.5735 72.8527 37.1263 68.5718 36.6784 63.5005C35.7438 61.1449 34.8098 59.5796 33.8758 58.0144C33.8758 58.0144 33.7535 57.8367 33.7774 57.3212C31.3231 49.3244 28.691 41.9364 21.8516 37.0998C21.4529 36.8112 20.8662 36.6107 20.6835 36.2208C17.5746 29.5886 11.7954 26.5626 5.11756 25.0936C0.913707 24.1688 -0.762929 22.0089 0.320979 17.2812C1.40199 14.9664 2.13035 13.2223 2.85873 11.4782C2.85871 11.4782 2.71855 11.3465 3.11254 11.1794C6.29211 7.99777 9.07765 4.98332 11.8632 1.96885C11.8632 1.96885 11.8859 2.03062 12.1988 2.00296C13.6405 1.31828 14.7694 0.661249 15.8983 0.0042134C19.6189 -0.0060176 23.3394 -0.0162486 27.6299 0.214815C28.4335 0.681657 28.6844 0.886194 28.9523 1.06972C28.9523 1.06972 28.8688 1.05179 29.0593 1.35179C29.8143 3.67896 30.5094 5.68084 30.9079 7.74011C31.3431 9.98928 30.8807 12.6252 31.8916 14.5131C36.3338 22.8097 41.1672 30.8968 45.8588 39.0599C47.1154 42.4781 48.372 45.8963 49.8235 49.6634C49.7298 55.1911 49.4413 60.3699 49.2289 66.0286Z"/><path id="shape6" transform="matrix(1.92 0 0 1.92 388.18889664 131.04202176)" fill="#6e513f" stroke="#000000" stroke-opacity="0" stroke-width="0" stroke-linecap="square" stroke-linejoin="bevel" d="M16.8414 37.3603C12.099 29.5868 7.26566 21.4997 2.82338 13.2031C1.8125 11.3152 2.2749 8.6793 1.83968 6.43013C1.44121 4.37086 0.746063 2.36897 0 0C1.31303 1.4203 4.07155 3.18593 4.06667 4.94389C4.05174 10.3291 5.77292 14.6116 8.60619 19.1482C12.0504 24.663 14.1888 30.9933 16.8414 37.3603Z"/><path id="shape7" transform="matrix(1.92 0 0 1.92 137.1611136 320.10550848)" fill="#c86f45" stroke="#000000" stroke-opacity="0" stroke-width="0" stroke-linecap="square" stroke-linejoin="bevel" d="M17.2643 0C14.0288 6.54492 10.2815 13.1556 6.96382 19.9754C4.44919 25.1444 2.48207 30.5798 0 36.0875C2.86634 22.9995 8.55212 10.9346 17.2643 0Z"/><path id="shape8" transform="matrix(1.92 0 0 1.92 374.45786112 200.43831936)" fill="#684c3b" stroke="#000000" stroke-opacity="0" stroke-width="0" stroke-linecap="square" stroke-linejoin="bevel" d="M0 0C6.77437 4.48256 9.40646 11.8705 11.9047 19.7688C7.97153 13.5753 4.01828 6.96468 0 0Z"/><path id="shape9" transform="matrix(1.92 0 0 1.92 338.44819392 132.37350528)" fill="#715847" stroke="#000000" stroke-opacity="0" stroke-width="0" stroke-linecap="square" stroke-linejoin="bevel" d="M8.35483 0C5.91608 2.97985 3.13054 5.99431 0 9.09315C2.43935 6.12989 5.22369 3.08225 8.35483 0Z"/><path id="shape10" transform="matrix(1.92 0 0 1.92 735.10593792 405.79763712)" fill="#b85851" stroke="#000000" stroke-opacity="0" stroke-width="0" stroke-linecap="square" stroke-linejoin="bevel" d="M1.08874 24.5042C0.754425 20.9581 0.395691 16.9213 0.215881 12.8764C0.032318 8.74702 0.024475 4.60983 0 0C0.423919 1.54361 1.05606 3.5573 1.10098 5.584C1.23706 11.7232 1.14566 17.8675 1.08874 24.5042Z"/><path id="shape11" transform="matrix(1.92 0 0 1.92 604.07361408 233.22542016)" fill="#9a4e47" stroke="#000000" stroke-opacity="0" stroke-width="0" stroke-linecap="square" stroke-linejoin="bevel" d="M12.8162 5.14059C8.70477 3.76313 4.46008 2.02904 0 0C4.08405 1.39802 8.38345 3.091 12.8162 5.14059Z"/><path id="shape12" transform="matrix(1.92 0 0 1.92 129.44334912 409.2843744)" fill="#c86f45" stroke="#000000" stroke-opacity="0" stroke-width="0" stroke-linecap="square" stroke-linejoin="bevel" d="M1.13092 0C1.04412 3.86774 0.611962 7.95979 0 12.3519C0.141983 8.50934 0.463768 4.36682 1.13092 0Z"/><path id="shape13" transform="matrix(1.92 0 0 1.92 633.7443168 246.42193344)" fill="#9a4e47" stroke="#000000" stroke-opacity="0" stroke-width="0" stroke-linecap="square" stroke-linejoin="bevel" d="M6.37521 3.26535C4.36935 2.51547 2.25333 1.41361 0 0C1.99683 0.76329 4.13092 1.83832 6.37521 3.26535Z"/><path id="shape14" transform="matrix(1.92 0 0 1.92 333.0735936 150.88316928)" fill="#715847" stroke="#000000" stroke-opacity="0" stroke-width="0" stroke-linecap="square" stroke-linejoin="bevel" d="M2.16583 0C1.76805 1.57837 1.03969 3.32245 0 5.21731C0.40419 3.63396 1.11971 1.89983 2.16583 0Z"/><path id="shape15" transform="matrix(1.92 0 0 1.92 397.59720768 240.55737216)" fill="#684c3b" stroke="#000000" stroke-opacity="0" stroke-width="0" stroke-linecap="square" stroke-linejoin="bevel" d="M0 0C0.841446 1.23038 1.77544 2.79564 2.67606 4.74242C2.11617 4.73158 1.58966 4.33922 0.755249 3.80444C0.329101 2.55296 0.210815 1.44392 0 0Z"/><path id="shape16" transform="matrix(1.92 0 0 1.92 355.73736384 128.584848)" fill="#715847" stroke="#000000" stroke-opacity="0" stroke-width="0" stroke-linecap="square" stroke-linejoin="bevel" d="M3.39053 0C2.60306 0.631043 1.47415 1.28807 0 1.97845C0.786209 1.34987 1.91765 0.687928 3.39053 0Z"/><path id="shape17" transform="matrix(1.92 0 0 1.92 646.50474624 253.92591744)" fill="#9a4e47" stroke="#000000" stroke-opacity="0" stroke-width="0" stroke-linecap="square" stroke-linejoin="bevel" d="M2.70486 1.33929C1.96426 1.24744 1.08685 0.782837 0 0C0.7164 0.110016 1.64224 0.538269 2.70486 1.33929Z"/><path id="shape18" transform="matrix(1.92 0 0 1.92 133.044666315661 401.30583936)" fill="#c86f45" stroke="#000000" stroke-opacity="0" stroke-width="0" stroke-linecap="square" stroke-linejoin="bevel" d="M0.354905 0C0.521234 0.495285 0.390504 1.12444 0.063844 1.85971C-0.068778 1.35518 -0.00546204 0.744507 0.354905 0Z"/><path id="shape19" transform="matrix(1.92 0 0 1.92 134.982849529489 393.52312512)" fill="#c86f45" stroke="#000000" stroke-opacity="0" stroke-width="0" stroke-linecap="square" stroke-linejoin="bevel" d="M0.37461 0C0.539649 0.509094 0.398375 1.16275 0.0596295 1.92973C-0.0691315 1.41023 -0.000421463 0.777405 0.37461 0Z"/><path id="shape20" transform="matrix(1.92 0 0 1.92 657.95824128 261.54782208)" fill="#9a4e47" stroke="#000000" stroke-opacity="0" stroke-width="0" stroke-linecap="square" stroke-linejoin="bevel" d="M2.41806 1.35208C1.65357 1.24809 0.912629 0.76886 0 0C0.699402 0.132523 1.57053 0.554672 2.41806 1.35208Z"/><path id="shape21" transform="matrix(1.92 0 0 1.92 652.26714816 257.76181632)" fill="#9a4e47" stroke="#000000" stroke-opacity="0" stroke-width="0" stroke-linecap="square" stroke-linejoin="bevel" d="M2.7038 1.34259C1.96619 1.24699 1.08914 0.781555 0 0C0.713379 0.11348 1.63889 0.543106 2.7038 1.34259Z"/><path id="shape22" transform="matrix(1.92 0 0 1.92 173.27748096 313.60488192)" fill="#c86f45" stroke="#000000" stroke-opacity="0" stroke-width="0" stroke-linecap="square" stroke-linejoin="bevel" d="M0.735313 0C0.69651 0.453476 0.461059 1.04994 0 1.76105C0.029152 1.29811 0.283912 0.720566 0.735313 0Z"/><path id="shape23" transform="matrix(1.92 0 0 1.92 597.87076224 232.224789407816)" fill="#9a4e47" stroke="#000000" stroke-opacity="0" stroke-width="0" stroke-linecap="square" stroke-linejoin="bevel" d="M1.3544 0.00054685C1.16168 0.12245 0.663818 0.194921 0 0.174322C0.239105 0.0378779 0.644165 -0.00551015 1.3544 0.00054685Z"/><path id="shape24" transform="matrix(1.92 0 0 1.92 664.68644544 267.009009443642)" fill="#9a4e47" stroke="#000000" stroke-opacity="0" stroke-width="0" stroke-linecap="square" stroke-linejoin="bevel" d="M1.03152 0.434975C0.804565 0.577034 0.492615 0.40696 0 0.0391006C0.195068 -0.0648424 0.57077 0.0289986 1.03152 0.434975Z"/><path id="shape25" transform="matrix(1.92 0 0 1.92 666.7975776 268.675116563061)" fill="#9a4e47" stroke="#000000" stroke-opacity="0" stroke-width="0" stroke-linecap="square" stroke-linejoin="bevel" d="M0.994568 0.578043C0.78418 0.660273 0.474396 0.449915 0 0.0119425C0.18866 -0.0486345 0.541931 0.118403 0.994568 0.578043Z"/><path id="shape26" transform="matrix(1.92 0 0 1.92 668.76070272 270.421782222806)" fill="#9a4e47" stroke="#000000" stroke-opacity="0" stroke-width="0" stroke-linecap="square" stroke-linejoin="bevel" d="M0.946411 0.586444C0.759369 0.647586 0.457581 0.442187 0 0.00770776C0.17334 -0.0409522 0.502503 0.139468 0.946411 0.586444Z"/><path id="shape27" transform="matrix(1.92 0 0 1.92 670.83240192 272.175353475932)" fill="#9a4e47" stroke="#000000" stroke-opacity="0" stroke-width="0" stroke-linecap="square" stroke-linejoin="bevel" d="M0.807282 0.579436C0.588837 0.709227 0.328034 0.530959 0 0.0587754C0.226105 -0.102296 0.503479 0.0665424 0.807282 0.579436Z"/><path id="shape28" transform="matrix(1.92 0 0 1.92 601.55285184 232.28408173072)" fill="#9a4e47" stroke="#000000" stroke-opacity="0" stroke-width="0" stroke-linecap="square" stroke-linejoin="bevel" d="M0.941254 0.0534744C0.858093 0.205719 0.608948 0.224014 0 0.137222C0.018555 -0.00539357 0.396881 -0.0429386 0.941254 0.0534744Z"/><path id="shape29" transform="matrix(1.92 0 0 1.92 662.6156256 265.264538225424)" fill="#9a4e47" stroke="#000000" stroke-opacity="0" stroke-width="0" stroke-linecap="square" stroke-linejoin="bevel" d="M0.942596 0.485459C0.682251 0.605745 0.364319 0.459092 0 0.0410323C0.264068 -0.0807477 0.574554 0.0688793 0.942596 0.485459Z"/><path id="shape30" transform="matrix(1.92 0 0 1.92 630.97910208 244.721832448549)" fill="#9a4e47" stroke="#000000" stroke-opacity="0" stroke-width="0" stroke-linecap="square" stroke-linejoin="bevel" d="M1.17575 0.361986C0.975403 0.507143 0.587646 0.40529 0 0.0635543C0.196197 -0.0792297 0.592285 0.0178703 1.17575 0.361986Z"/><path id="shape31" transform="matrix(1.92 0 0 1.92 386.21074176 129.050244902245)" fill="#6e513f" stroke="#000000" stroke-opacity="0" stroke-width="0" stroke-linecap="square" stroke-linejoin="bevel" d="M0.82367 0.549866C0.646469 0.613594 0.39563 0.409057 0 0.00178478C0.136368 -0.0190812 0.434632 0.141769 0.82367 0.549866Z"/><path id="shape32" transform="matrix(1.92 0 0 1.92 174.619846506971 293.101351021124)" fill="#ffce92" stroke="#000000" stroke-opacity="0" stroke-width="0" stroke-linecap="square" stroke-linejoin="bevel" d="M13.0112 89.0851C6.29938 88.6971 3.1376 84.7285 1.70126 79.1194C-2.21438 63.8286 1.03484 49.2608 7.31261 35.3952C13.0061 22.8201 20.9307 11.5891 33.1196 4.40707C37.1258 2.04651 42.051 0.734251 46.711 0.120451C52.9463 -0.700808 57.4333 2.75276 60.4284 8.18407C63.2685 13.3343 61.8066 17.8756 58.3991 22.0078C56.2896 24.566 53.7378 26.7545 51.5474 29.2518C44.429 37.3676 36.9879 45.2439 30.4268 53.7925C24.051 62.0999 20.7941 71.9653 19.2136 82.3354C18.6917 85.7602 17.9081 89.0464 13.0112 89.0851Z"/><path id="shape33" transform="matrix(1.92 0 0 1.92 323.629605372267 263.430586770391)" fill="#a01d08" stroke="#000000" stroke-opacity="0" stroke-width="0" stroke-linecap="square" stroke-linejoin="bevel" d="M43.3833 12.7505C44.0398 15.8437 44.2915 19.1076 45.498 21.9688C46.277 23.8161 48.5558 26.3856 49.9822 26.2764C51.9487 26.1259 54.485 24.1257 55.4339 22.2414C56.7292 19.6692 56.7601 16.4602 57.4025 13.1203C66.6932 9.51147 75.9155 6.30991 85.1347 3.09923C87.4823 2.28168 89.7787 1.28558 92.1697 0.630569C98.7936 -1.18408 101.277 0.785659 101.516 8.26678C97.9056 16.3518 91.4252 20.9957 84.0609 24.3448C59.7607 35.3957 35.2242 36.1091 10.7788 24.8866C5.01591 22.241 -0.535388 18.7636 0.0413479 10.4424C5.54519 9.30977 10.7913 7.89528 15.8596 8.37167C25.0898 9.2393 34.2146 11.229 43.3833 12.7505Z"/><path id="shape34" transform="matrix(1.92 0 0 1.92 323.400494902077 267.62432207823)" fill="#ef101f" stroke="#000000" stroke-opacity="0" stroke-width="0" stroke-linecap="square" stroke-linejoin="bevel" d="M43.526 10.1833C34.3339 9.04474 25.2091 7.05507 15.9789 6.18744C10.9106 5.71104 5.66452 7.12553 0.166749 7.8873C-0.656584 3.79431 1.63968 1.17274 5.49475 0.626797C9.86777 0.00750425 14.4467 -0.260547 18.8001 0.326779C26.5316 1.36984 34.1605 3.17299 42.2644 4.67257C42.9808 6.39142 43.2651 8.09587 43.526 10.1833Z"/>
</svg>
