<svg version="1.1" id="Layer_1" xmlns="http://www.w3.org/2000/svg" xmlns:xlink="http://www.w3.org/1999/xlink" x="0px" y="0px"
	 width="100%" viewBox="0 0 450 450" enable-background="new 0 0 450 450" xml:space="preserve">
<path fill="#000000" opacity="1.000000" stroke="none" 
	d="
M271.000000,451.000000 
	C180.691605,451.000000 90.883202,451.000000 1.037404,451.000000 
	C1.037404,301.066589 1.037404,151.133148 1.037404,1.099859 
	C150.891739,1.099859 300.783569,1.099859 450.837708,1.099859 
	C450.837708,150.999863 450.837708,300.999908 450.837708,451.000000 
	C391.133118,451.000000 331.316559,451.000000 271.000000,451.000000 
M349.272980,141.706879 
	C349.272980,141.706879 349.374023,141.697662 349.144501,141.164566 
	C348.815369,140.984146 348.486206,140.803726 348.178314,140.829605 
	C348.178314,140.829605 348.384338,140.805588 348.185608,140.220398 
	C347.832336,140.053360 347.479065,139.886322 347.168365,139.859024 
	C347.168365,139.859024 347.307404,139.814301 347.137360,139.190033 
	C346.761627,139.096191 346.385925,139.002350 346.060059,138.961227 
	C346.060059,138.961227 346.112488,138.911026 345.997314,138.377121 
	C345.686859,138.227493 345.376373,138.077866 345.005890,137.986572 
	C345.005890,137.986572 345.081085,137.950150 345.128204,137.199661 
	C344.257111,136.777496 343.385986,136.355347 342.513214,135.993835 
	C342.513214,135.993835 342.565704,135.963394 342.286865,135.223679 
	C341.361359,134.794052 340.435852,134.364426 339.510590,133.995132 
	C339.510590,133.995132 339.562927,133.965134 339.289276,133.219620 
	C338.363464,132.791351 337.437622,132.363098 336.510345,131.994736 
	C336.510345,131.994736 336.560577,131.962097 336.340179,131.258102 
	C334.206085,130.183075 332.071991,129.108047 329.952209,128.077682 
	C329.952209,128.077682 329.998108,128.068283 329.623291,127.574257 
	C329.227234,127.477158 328.831146,127.380058 328.164246,127.130035 
	C327.983246,127.014801 327.785553,126.961052 327.304565,126.255554 
	C323.005127,124.562569 318.705719,122.869591 314.436279,121.053947 
	C314.436279,121.053947 314.416046,121.168724 314.084015,120.900810 
	C313.705658,120.938354 313.327332,120.975899 313.006226,121.057236 
	C313.006226,121.057236 313.050537,121.000389 312.440277,120.901520 
	C312.035187,120.944901 311.630127,120.988289 310.408966,120.937943 
	C307.103607,120.204208 303.798279,119.470474 300.610291,118.026840 
	C308.075073,110.519958 315.977417,103.391975 322.890930,95.407768 
	C331.045929,85.989777 337.327393,75.254662 340.458252,63.018345 
	C340.825623,61.582596 339.571716,59.732018 338.281799,57.871887 
	C337.181580,57.537796 336.084808,56.928097 334.980621,56.914433 
	C327.920685,56.827072 320.832825,56.483425 313.804199,56.960766 
	C302.863251,57.703808 291.615356,57.686794 281.115021,60.390213 
	C257.851471,66.379639 240.845169,81.009331 229.830261,102.403717 
	C227.388641,107.146103 225.353897,112.097961 222.742188,116.255592 
	C221.485565,112.837364 220.228943,109.419144 219.073868,105.221855 
	C216.370529,99.244354 214.232101,92.914047 210.787903,87.399254 
	C207.954636,82.862686 206.233459,78.580109 206.248383,73.194939 
	C206.253265,71.436981 203.494751,69.671356 201.982285,67.992859 
	C201.982285,67.992859 202.065872,68.010788 201.884338,67.516281 
	C201.586060,67.355438 201.287796,67.194588 200.173508,66.914589 
	C196.452957,66.924820 192.732391,66.935051 188.328964,66.997261 
	C187.197525,67.659203 186.066086,68.321144 184.999466,68.971687 
	C184.999466,68.971687 184.976730,68.909920 184.283127,68.979141 
	C181.498795,72.026779 178.714447,75.074425 175.832077,78.287544 
	C175.832077,78.287544 175.972244,78.419266 175.311050,78.750694 
	C174.595535,80.484818 173.880020,82.218941 173.081863,84.792946 
	C172.350601,88.949944 174.027237,91.109825 178.231094,92.034630 
	C184.908920,93.503693 190.688141,96.529686 193.796982,103.161858 
	C193.979736,103.551727 194.566406,103.752266 195.095169,104.749016 
	C199.048416,111.359634 203.001663,117.970245 206.867035,124.777802 
	C206.867035,124.777802 206.989319,124.955437 207.174423,125.625168 
	C207.292694,126.734215 207.410980,127.843262 206.774139,128.980301 
	C200.233109,127.725487 193.720703,125.630692 187.144531,125.406425 
	C176.419647,125.040703 165.392090,124.559700 154.974442,126.595177 
	C143.580994,128.821304 132.220963,132.804001 121.786118,137.932999 
	C109.832176,143.808685 99.676201,152.698944 90.787361,163.478897 
	C90.532600,164.056442 90.277840,164.633987 89.575409,165.569107 
	C89.393410,165.901398 89.211418,166.233688 88.375336,166.877274 
	C79.990196,177.656219 74.304420,189.721115 71.109177,203.605545 
	C71.067619,204.008835 71.026062,204.412125 70.371857,205.104523 
	C70.303146,205.737366 70.234436,206.370193 70.107750,207.630920 
	C70.053856,208.047150 69.999954,208.463364 69.351944,209.147308 
	C69.288635,209.757965 69.225319,210.368637 69.106529,211.640259 
	C69.035919,212.075058 68.965309,212.509842 68.203964,213.393234 
	C67.882179,217.535767 67.560394,221.678284 66.919266,226.642532 
	C66.658081,227.053192 66.177002,227.458847 66.167511,227.875244 
	C65.836639,242.391693 65.186440,256.987640 68.271584,271.268829 
	C71.957840,288.332581 77.603790,304.818390 85.489571,320.439758 
	C95.700974,340.668091 109.144066,358.483398 126.998604,372.529144 
	C133.478790,377.626984 141.190659,381.159149 148.727264,385.838623 
	C157.770676,390.711060 167.448746,393.412506 177.653290,394.359161 
	C188.494308,395.364899 199.311798,396.406464 209.728516,391.823395 
	C219.344894,387.592468 229.201447,386.064209 239.361511,389.838074 
	C248.382690,393.188873 257.873108,394.192200 267.160461,392.865295 
	C288.131409,389.869263 306.509399,380.679230 322.061127,366.361694 
	C341.325989,348.625732 356.742889,327.916382 367.148071,303.802429 
	C371.301727,294.176361 375.166107,284.258606 377.598053,274.099213 
	C380.560730,261.722809 381.875031,248.951782 384.010559,235.362747 
	C384.013336,229.220444 384.104736,223.076157 383.968658,216.936935 
	C383.923737,214.910233 383.291595,212.896545 382.890747,210.110611 
	C380.270020,183.617065 369.787201,160.917099 350.100403,142.112000 
	C349.895355,141.824539 349.617981,141.655701 349.272980,141.706879 
z"/>
<path fill="#FF5012" opacity="1.000000" stroke="none" 
	d="
M69.946053,208.879593 
	C69.999954,208.463364 70.053856,208.047150 70.334213,207.203644 
	C70.701942,206.122711 70.843216,205.469055 70.984497,204.815414 
	C71.026062,204.412125 71.067619,204.008835 71.409279,203.111908 
	C73.920151,197.301392 75.887268,191.866013 78.401901,186.696976 
	C81.719574,179.877258 85.466835,173.266541 89.029419,166.565979 
	C89.211418,166.233688 89.393410,165.901398 90.024857,165.275696 
	C90.709747,164.385818 90.945198,163.789352 91.180641,163.192871 
	C99.676201,152.698944 109.832176,143.808685 121.786118,137.932999 
	C132.220963,132.804001 143.580994,128.821304 154.974442,126.595177 
	C165.392090,124.559700 176.419647,125.040703 187.144531,125.406425 
	C193.720703,125.630692 200.233109,127.725487 207.459579,129.108734 
	C208.671539,129.629517 209.198044,130.021881 209.758545,130.823120 
	C210.239792,135.512878 210.687042,139.793762 210.702194,144.060242 
	C202.598251,142.560654 194.969315,140.757507 187.237823,139.714447 
	C182.884430,139.127121 178.305527,139.395172 173.932510,140.014465 
	C170.077438,140.560410 167.781174,143.181976 168.266571,147.845657 
	C168.021698,155.967010 173.572998,159.444412 179.335846,162.090042 
	C203.781296,173.312515 228.317749,172.599152 252.617966,161.548218 
	C259.982300,158.199173 266.462708,153.555267 270.485870,145.906906 
	C279.828491,146.299515 288.847443,147.599228 297.648834,146.720276 
	C304.939758,145.992188 312.052032,142.916840 319.091034,140.446976 
	C322.928528,139.100464 325.933899,139.257523 329.254547,141.804977 
	C337.502625,148.132599 343.426392,156.237640 348.228668,165.286819 
	C357.053955,181.916809 359.508484,200.044556 359.883331,218.446671 
	C360.449921,246.262177 351.189514,271.091827 334.955780,293.351257 
	C312.576813,324.036835 282.577423,345.264832 248.249130,360.308472 
	C218.278397,373.442535 186.304321,379.318451 153.940063,383.133057 
	C152.011078,383.360382 150.204224,384.624176 148.340546,385.405701 
	C141.190659,381.159149 133.478790,377.626984 126.998604,372.529144 
	C109.144066,358.483398 95.700974,340.668091 85.489571,320.439758 
	C77.603790,304.818390 71.957840,288.332581 68.271584,271.268829 
	C65.186440,256.987640 65.836639,242.391693 66.167511,227.875244 
	C66.177002,227.458847 66.658081,227.053192 67.258743,225.931656 
	C68.030373,221.128738 68.462532,217.036682 68.894699,212.944641 
	C68.965309,212.509842 69.035919,212.075058 69.330200,211.203644 
	C69.684601,210.137894 69.815331,209.508743 69.946053,208.879593 
M104.353981,241.745880 
	C108.855927,241.703400 109.639488,238.417191 110.161453,234.992386 
	C111.741959,224.622223 114.998856,214.756836 121.374672,206.449493 
	C127.935692,197.900848 135.376846,190.024567 142.495270,181.908798 
	C144.685684,179.411499 147.237473,177.222961 149.346985,174.664780 
	C152.754440,170.532547 154.216339,165.991211 151.376221,160.841019 
	C148.381088,155.409714 143.894150,151.956146 137.658875,152.777405 
	C132.998795,153.391205 128.073608,154.703461 124.067429,157.064026 
	C111.878532,164.246078 103.953903,175.477097 98.260445,188.052109 
	C91.982674,201.917709 88.733459,216.485550 92.649094,231.776398 
	C94.085434,237.385452 97.247215,241.354080 104.353981,241.745880 
z"/>
<path fill="#F20F21" opacity="1.000000" stroke="none" 
	d="
M148.533905,385.622162 
	C150.204224,384.624176 152.011078,383.360382 153.940063,383.133057 
	C186.304321,379.318451 218.278397,373.442535 248.249130,360.308472 
	C282.577423,345.264832 312.576813,324.036835 334.955780,293.351257 
	C351.189514,271.091827 360.449921,246.262177 359.883331,218.446671 
	C359.508484,200.044556 357.053955,181.916809 348.228668,165.286819 
	C343.426392,156.237640 337.502625,148.132599 329.254547,141.804977 
	C325.933899,139.257523 322.928528,139.100464 319.091034,140.446976 
	C312.052032,142.916840 304.939758,145.992188 297.648834,146.720276 
	C288.847443,147.599228 279.828491,146.299515 270.491302,145.506073 
	C269.833954,137.989090 267.350647,136.019348 260.726746,137.834000 
	C258.335815,138.489014 256.039337,139.485107 253.691772,140.302658 
	C244.472626,143.513336 235.250305,146.714905 225.938385,149.497406 
	C225.573837,145.396942 225.300034,141.718918 225.449921,138.044159 
	C230.978943,138.360672 236.116684,139.203430 241.183823,138.893127 
	C260.369446,137.718155 277.313293,129.854218 293.789429,120.670250 
	C295.768311,119.567200 298.246277,119.359459 300.492920,118.736740 
	C303.798279,119.470474 307.103607,120.204208 310.982971,121.077866 
	C312.054840,121.145332 312.552704,121.072861 313.050537,121.000397 
	C313.050537,121.000389 313.006226,121.057236 313.337402,121.140411 
	C313.917725,121.205307 314.166870,121.187012 314.416046,121.168724 
	C314.416046,121.168724 314.436279,121.053947 314.636658,121.410240 
	C319.081757,123.500618 323.326447,125.234703 327.571136,126.968788 
	C327.785553,126.961052 327.983246,127.014801 328.499542,127.446381 
	C329.222595,127.864578 329.610352,127.966431 329.998108,128.068283 
	C329.998108,128.068283 329.952209,128.077682 330.082336,128.367096 
	C332.328491,129.758362 334.444519,130.860229 336.560577,131.962097 
	C336.560577,131.962097 336.510345,131.994736 336.720490,132.283020 
	C337.808075,133.035919 338.685486,133.500519 339.562927,133.965134 
	C339.562927,133.965134 339.510590,133.995132 339.722595,134.281097 
	C340.811615,135.032501 341.688660,135.497940 342.565704,135.963394 
	C342.565704,135.963394 342.513214,135.993835 342.685730,136.253143 
	C343.599213,136.991684 344.340149,137.470917 345.081085,137.950150 
	C345.081085,137.950150 345.005890,137.986572 345.082275,138.228821 
	C345.476624,138.617706 345.794556,138.764359 346.112488,138.911026 
	C346.112488,138.911026 346.060059,138.961227 346.215759,139.132660 
	C346.683472,139.474152 346.995422,139.644226 347.307404,139.814301 
	C347.307404,139.814301 347.168365,139.859024 347.311707,140.016785 
	C347.764801,140.384872 348.074585,140.595230 348.384338,140.805588 
	C348.384338,140.805588 348.178314,140.829605 348.323486,140.955536 
	C348.770447,141.286865 349.072235,141.492264 349.374023,141.697662 
	C349.374023,141.697662 349.272980,141.706879 349.394226,141.867462 
	C349.719910,142.288956 349.980713,142.467224 350.297943,142.562881 
	C369.787201,160.917099 380.270020,183.617065 382.849060,210.969788 
	C382.892151,215.962769 382.899994,220.099960 383.083557,224.229355 
	C383.263367,228.274200 383.622101,232.311066 383.902283,236.351440 
	C381.875031,248.951782 380.560730,261.722809 377.598053,274.099213 
	C375.166107,284.258606 371.301727,294.176361 367.148071,303.802429 
	C356.742889,327.916382 341.325989,348.625732 322.061127,366.361694 
	C306.509399,380.679230 288.131409,389.869263 267.160461,392.865295 
	C257.873108,394.192200 248.382690,393.188873 239.361511,389.838074 
	C229.201447,386.064209 219.344894,387.592468 209.728516,391.823395 
	C199.311798,396.406464 188.494308,395.364899 177.653290,394.359161 
	C167.448746,393.412506 157.770676,390.711060 148.533905,385.622162 
z"/>
<path fill="#387B27" opacity="1.000000" stroke="none" 
	d="
M223.131805,116.953369 
	C225.353897,112.097961 227.388641,107.146103 229.830261,102.403717 
	C240.845169,81.009331 257.851471,66.379639 281.115021,60.390213 
	C291.615356,57.686794 302.863251,57.703808 313.804199,56.960766 
	C320.832825,56.483425 327.920685,56.827072 334.980621,56.914433 
	C336.084808,56.928097 337.181580,57.537796 338.536926,58.282295 
	C337.472626,59.653496 336.210663,60.707687 334.825073,61.561111 
	C312.917145,75.054787 290.835388,88.274254 269.125885,102.079353 
	C253.304825,112.139992 237.970001,122.965263 222.342407,132.969711 
	C222.554855,127.310959 222.843323,122.132164 223.131805,116.953369 
z"/>
<path fill="#809D15" opacity="1.000000" stroke="none" 
	d="
M222.418411,133.449646 
	C237.970001,122.965263 253.304825,112.139992 269.125885,102.079353 
	C290.835388,88.274254 312.917145,75.054787 334.825073,61.561111 
	C336.210663,60.707687 337.472626,59.653496 338.930725,58.383224 
	C339.571716,59.732018 340.825623,61.582596 340.458252,63.018345 
	C337.327393,75.254662 331.045929,85.989777 322.890930,95.407768 
	C315.977417,103.391975 308.075073,110.519958 300.551605,118.381790 
	C298.246277,119.359459 295.768311,119.567200 293.789429,120.670250 
	C277.313293,129.854218 260.369446,137.718155 241.183823,138.893127 
	C236.116684,139.203430 230.978943,138.360672 225.157349,137.871002 
	C223.766846,136.279617 223.092621,134.864639 222.418411,133.449646 
z"/>
<path fill="#5F3626" opacity="1.000000" stroke="none" 
	d="
M222.342407,132.969696 
	C223.092621,134.864639 223.766846,136.279617 224.733643,137.867767 
	C225.300034,141.718918 225.573837,145.396942 225.868851,149.901321 
	C225.317139,153.663666 225.286316,156.872635 223.990997,159.444824 
	C223.042053,161.329163 220.505737,163.329376 218.539291,163.479858 
	C217.112854,163.589035 214.834045,161.019531 214.055084,159.172272 
	C212.848541,156.311020 212.596924,153.047089 211.963806,149.570938 
	C211.702896,147.483536 211.418594,145.779083 211.134293,144.074646 
	C210.687042,139.793762 210.239792,135.512878 209.791931,130.441589 
	C208.857315,128.085938 207.923325,126.520683 206.989319,124.955429 
	C206.989319,124.955437 206.867035,124.777802 206.890900,124.262260 
	C204.436600,116.265442 201.804504,108.877518 194.965103,104.040909 
	C194.566406,103.752266 193.979736,103.551727 193.796982,103.161858 
	C190.688141,96.529686 184.908920,93.503693 178.231094,92.034630 
	C174.027237,91.109825 172.350601,88.949944 173.434509,84.222229 
	C174.515518,81.907433 175.243881,80.163353 175.972260,78.419266 
	C175.972244,78.419266 175.832077,78.287544 176.226074,78.120422 
	C179.405640,74.938843 182.191177,71.924385 184.976730,68.909920 
	C184.976730,68.909920 184.999466,68.971687 185.312286,68.944031 
	C186.754028,68.259346 187.882935,67.602318 189.011841,66.945282 
	C192.732391,66.935051 196.452957,66.924820 200.743439,67.155884 
	C201.547058,67.622726 201.797897,67.827263 202.065872,68.010788 
	C202.065872,68.010788 201.982285,67.992859 202.172821,68.292862 
	C202.927780,70.620026 203.622925,72.621910 204.021393,74.681183 
	C204.456619,76.930351 203.994217,79.566231 205.005096,81.454201 
	C209.447372,89.750740 214.280716,97.837875 218.972305,106.000923 
	C220.228943,109.419144 221.485565,112.837364 222.936996,116.604477 
	C222.843323,122.132164 222.554855,127.310959 222.342407,132.969696 
z"/>
<path fill="#6E513F" opacity="1.000000" stroke="none" 
	d="
M219.023087,105.611389 
	C214.280716,97.837875 209.447372,89.750740 205.005096,81.454201 
	C203.994217,79.566231 204.456619,76.930351 204.021393,74.681183 
	C203.622925,72.621910 202.927780,70.620026 202.181717,68.251053 
	C203.494751,69.671356 206.253265,71.436981 206.248383,73.194939 
	C206.233459,78.580109 207.954636,82.862686 210.787903,87.399254 
	C214.232101,92.914047 216.370529,99.244354 219.023087,105.611389 
z"/>
<path fill="#C86F45" opacity="1.000000" stroke="none" 
	d="
M88.702377,166.721619 
	C85.466835,173.266541 81.719574,179.877258 78.401901,186.696976 
	C75.887268,191.866013 73.920151,197.301392 71.438080,202.809082 
	C74.304420,189.721115 79.990196,177.656219 88.702377,166.721619 
z"/>
<path fill="#684C3B" opacity="1.000000" stroke="none" 
	d="
M195.030136,104.394958 
	C201.804504,108.877518 204.436600,116.265442 206.934845,124.163788 
	C203.001663,117.970245 199.048416,111.359634 195.030136,104.394958 
z"/>
<path fill="#715847" opacity="1.000000" stroke="none" 
	d="
M184.629929,68.944534 
	C182.191177,71.924385 179.405640,74.938843 176.275101,78.037689 
	C178.714447,75.074425 181.498795,72.026779 184.629929,68.944534 
z"/>
<path fill="#B85851" opacity="1.000000" stroke="none" 
	d="
M383.956421,235.857086 
	C383.622101,232.311066 383.263367,228.274200 383.083557,224.229355 
	C382.899994,220.099960 382.892151,215.962769 382.867676,211.352936 
	C383.291595,212.896545 383.923737,214.910233 383.968658,216.936935 
	C384.104736,223.076157 384.013336,229.220444 383.956421,235.857086 
z"/>
<path fill="#9A4E47" opacity="1.000000" stroke="none" 
	d="
M327.437866,126.612167 
	C323.326447,125.234703 319.081757,123.500618 314.621674,121.471573 
	C318.705719,122.869591 323.005127,124.562569 327.437866,126.612167 
z"/>
<path fill="#C86F45" opacity="1.000000" stroke="none" 
	d="
M68.549332,213.168945 
	C68.462532,217.036682 68.030373,221.128738 67.418411,225.520798 
	C67.560394,221.678284 67.882179,217.535767 68.549332,213.168945 
z"/>
<path fill="#9A4E47" opacity="1.000000" stroke="none" 
	d="
M336.450378,131.610107 
	C334.444519,130.860229 332.328491,129.758362 330.075165,128.344757 
	C332.071991,129.108047 334.206085,130.183075 336.450378,131.610107 
z"/>
<path fill="#715847" opacity="1.000000" stroke="none" 
	d="
M175.641663,78.584984 
	C175.243881,80.163353 174.515518,81.907433 173.475830,83.802292 
	C173.880020,82.218941 174.595535,80.484818 175.641663,78.584984 
z"/>
<path fill="#684C3B" opacity="1.000000" stroke="none" 
	d="
M207.081879,125.290298 
	C207.923325,126.520683 208.857315,128.085938 209.757935,130.032715 
	C209.198044,130.021881 208.671539,129.629517 207.837128,129.094742 
	C207.410980,127.843262 207.292694,126.734215 207.081879,125.290298 
z"/>
<path fill="#715847" opacity="1.000000" stroke="none" 
	d="
M188.670410,66.971275 
	C187.882935,67.602318 186.754028,68.259346 185.279877,68.949730 
	C186.066086,68.321144 187.197525,67.659203 188.670410,66.971275 
z"/>
<path fill="#9A4E47" opacity="1.000000" stroke="none" 
	d="
M339.426086,133.592377 
	C338.685486,133.500519 337.808075,133.035919 336.721222,132.253082 
	C337.437622,132.363098 338.363464,132.791351 339.426086,133.592377 
z"/>
<path fill="#C86F45" opacity="1.000000" stroke="none" 
	d="
M69.649002,209.013458 
	C69.815331,209.508743 69.684601,210.137894 69.357941,210.873169 
	C69.225319,210.368637 69.288635,209.757965 69.649002,209.013458 
z"/>
<path fill="#C86F45" opacity="1.000000" stroke="none" 
	d="
M70.678177,204.959961 
	C70.843216,205.469055 70.701942,206.122711 70.363197,206.889694 
	C70.234436,206.370193 70.303146,205.737366 70.678177,204.959961 
z"/>
<path fill="#9A4E47" opacity="1.000000" stroke="none" 
	d="
M345.104645,137.574905 
	C344.340149,137.470917 343.599213,136.991684 342.686584,136.222824 
	C343.385986,136.355347 344.257111,136.777496 345.104645,137.574905 
z"/>
<path fill="#9A4E47" opacity="1.000000" stroke="none" 
	d="
M342.426270,135.593536 
	C341.688660,135.497940 340.811615,135.032501 339.722473,134.250946 
	C340.435852,134.364426 341.361359,134.794052 342.426270,135.593536 
z"/>
<path fill="#C86F45" opacity="1.000000" stroke="none" 
	d="
M90.984001,163.335876 
	C90.945198,163.789352 90.709747,164.385818 90.248688,165.096924 
	C90.277840,164.633987 90.532600,164.056442 90.984001,163.335876 
z"/>
<path fill="#9A4E47" opacity="1.000000" stroke="none" 
	d="
M312.745422,120.950958 
	C312.552704,121.072861 312.054840,121.145332 311.391022,121.124733 
	C311.630127,120.988289 312.035187,120.944901 312.745422,120.950958 
z"/>
<path fill="#9A4E47" opacity="1.000000" stroke="none" 
	d="
M347.222382,139.502167 
	C346.995422,139.644226 346.683472,139.474152 346.190857,139.106293 
	C346.385925,139.002350 346.761627,139.096191 347.222382,139.502167 
z"/>
<path fill="#9A4E47" opacity="1.000000" stroke="none" 
	d="
M348.284973,140.513000 
	C348.074585,140.595230 347.764801,140.384872 347.290405,139.946899 
	C347.479065,139.886322 347.832336,140.053360 348.284973,140.513000 
z"/>
<path fill="#9A4E47" opacity="1.000000" stroke="none" 
	d="
M349.259277,141.431122 
	C349.072235,141.492264 348.770447,141.286865 348.312866,140.852386 
	C348.486206,140.803726 348.815369,140.984146 349.259277,141.431122 
z"/>
<path fill="#9A4E47" opacity="1.000000" stroke="none" 
	d="
M350.199158,142.337433 
	C349.980713,142.467224 349.719910,142.288956 349.391876,141.816772 
	C349.617981,141.655701 349.895355,141.824539 350.199158,142.337433 
z"/>
<path fill="#9A4E47" opacity="1.000000" stroke="none" 
	d="
M314.250031,121.034767 
	C314.166870,121.187012 313.917725,121.205307 313.308777,121.118515 
	C313.327332,120.975899 313.705658,120.938354 314.250031,121.034767 
z"/>
<path fill="#9A4E47" opacity="1.000000" stroke="none" 
	d="
M346.054901,138.644073 
	C345.794556,138.764359 345.476624,138.617706 345.112305,138.199646 
	C345.376373,138.077866 345.686859,138.227493 346.054901,138.644073 
z"/>
<path fill="#9A4E47" opacity="1.000000" stroke="none" 
	d="
M329.810699,127.821274 
	C329.610352,127.966431 329.222595,127.864578 328.634949,127.522842 
	C328.831146,127.380058 329.227234,127.477158 329.810699,127.821274 
z"/>
<path fill="#6E513F" opacity="1.000000" stroke="none" 
	d="
M201.975098,67.763535 
	C201.797897,67.827263 201.547058,67.622726 201.151428,67.215454 
	C201.287796,67.194588 201.586060,67.355438 201.975098,67.763535 
z"/>
<path fill="#FFCE92" opacity="1.000000" stroke="none" 
	d="
M103.959007,241.742035 
	C97.247215,241.354080 94.085434,237.385452 92.649094,231.776398 
	C88.733459,216.485550 91.982674,201.917709 98.260445,188.052109 
	C103.953903,175.477097 111.878532,164.246078 124.067429,157.064026 
	C128.073608,154.703461 132.998795,153.391205 137.658875,152.777405 
	C143.894150,151.956146 148.381088,155.409714 151.376221,160.841019 
	C154.216339,165.991211 152.754440,170.532547 149.346985,174.664780 
	C147.237473,177.222961 144.685684,179.411499 142.495270,181.908798 
	C135.376846,190.024567 127.935692,197.900848 121.374672,206.449493 
	C114.998856,214.756836 111.741959,224.622223 110.161453,234.992386 
	C109.639488,238.417191 108.855927,241.703400 103.959007,241.742035 
z"/>
<path fill="#A01D08" opacity="1.000000" stroke="none" 
	d="
M211.940399,149.953903 
	C212.596924,153.047089 212.848541,156.311020 214.055084,159.172272 
	C214.834045,161.019531 217.112854,163.589035 218.539291,163.479858 
	C220.505737,163.329376 223.042053,161.329163 223.990997,159.444824 
	C225.286316,156.872635 225.317139,153.663666 225.959595,150.323776 
	C235.250305,146.714905 244.472626,143.513336 253.691772,140.302658 
	C256.039337,139.485107 258.335815,138.489014 260.726746,137.834000 
	C267.350647,136.019348 269.833954,137.989090 270.073486,145.470215 
	C266.462708,153.555267 259.982300,158.199173 252.617966,161.548218 
	C228.317749,172.599152 203.781296,173.312515 179.335846,162.090042 
	C173.572998,159.444412 168.021698,155.967010 168.598434,147.645813 
	C174.102280,146.513199 179.348343,145.098709 184.416656,145.575104 
	C193.646881,146.442734 202.771637,148.432404 211.940399,149.953903 
z"/>
<path fill="#EF101F" opacity="1.000000" stroke="none" 
	d="
M211.963806,149.570938 
	C202.771637,148.432404 193.646881,146.442734 184.416656,145.575104 
	C179.348343,145.098709 174.102280,146.513199 168.604507,147.274963 
	C167.781174,143.181976 170.077438,140.560410 173.932510,140.014465 
	C178.305527,139.395172 182.884430,139.127121 187.237823,139.714447 
	C194.969315,140.757507 202.598251,142.560654 210.702194,144.060242 
	C211.418594,145.779083 211.702896,147.483536 211.963806,149.570938 
z"/>
</svg>